<svg width="154" height="154" viewBox="0 0 154 154" fill="none" xmlns="http://www.w3.org/2000/svg">
<g clip-path="url(#clip0_109_2)">
<path d="M76.5481 150.106C117.168 150.106 150.097 117.176 150.097 76.5547C150.097 35.9333 117.168 3.00317 76.5481 3.00317C35.9279 3.00317 2.99878 35.9333 2.99878 76.5547C2.99878 117.176 35.9279 150.106 76.5481 150.106Z" fill="#1E40AF"/>
<path d="M147.093 76.5548C147.091 78.5133 147.018 80.4719 146.862 82.4233C146.787 83.3719 146.695 84.3182 146.584 85.262C146.555 85.498 146.525 85.7316 146.497 85.9676C146.428 86.5221 146.591 85.3022 146.482 86.0714C146.416 86.5386 146.348 87.0035 146.272 87.4683C145.675 91.2061 144.786 94.899 143.615 98.4999C143.049 100.244 142.417 101.969 141.721 103.665C141.671 103.786 141.619 103.906 141.572 104.026C141.447 104.335 141.683 103.75 141.685 103.76C141.711 103.908 141.48 104.239 141.414 104.387C141.218 104.836 141.02 105.282 140.815 105.725C140.435 106.551 140.038 107.37 139.63 108.182C137.983 111.44 136.091 114.574 133.979 117.552C133.717 117.92 133.453 118.286 133.186 118.647C133.03 118.859 132.563 119.744 132.315 119.803C132.308 119.803 132.693 119.319 132.49 119.577C132.431 119.652 132.372 119.73 132.31 119.806C132.171 119.983 132.032 120.159 131.89 120.334C131.588 120.712 131.284 121.085 130.975 121.455C129.823 122.838 128.622 124.178 127.374 125.474C126.102 126.793 124.783 128.062 123.417 129.282C122.747 129.881 122.065 130.469 121.371 131.045C121.024 131.333 120.675 131.616 120.324 131.899C120.147 132.041 119.972 132.18 119.795 132.319C119.72 132.378 119.642 132.437 119.566 132.498C119.262 132.739 120.163 132.045 119.639 132.442C116.73 134.643 113.686 136.651 110.489 138.414C108.87 139.306 107.216 140.139 105.534 140.906C105.149 141.081 104.762 141.255 104.375 141.423C104.224 141.489 103.896 141.718 103.747 141.694C103.738 141.694 104.323 141.456 104.014 141.581C103.863 141.642 103.712 141.706 103.561 141.767C102.714 142.114 101.86 142.444 101.001 142.758C97.4943 144.042 93.8888 145.052 90.2267 145.783C89.2734 145.975 88.3178 146.144 87.3597 146.298C86.9279 146.366 86.4961 146.43 86.062 146.491C85.2904 146.6 86.5126 146.437 85.9581 146.505C85.6891 146.538 85.4225 146.572 85.1535 146.605C83.2233 146.829 81.2837 146.977 79.3418 147.051C75.4696 147.194 71.5857 147.041 67.7395 146.581C67.5036 146.553 67.27 146.522 67.0364 146.494C66.6919 146.454 67.3408 146.531 67.3337 146.534C67.2723 146.557 66.9703 146.484 66.9325 146.477C66.4653 146.411 66.0005 146.34 65.5356 146.265C64.6107 146.116 63.6881 145.949 62.7678 145.764C60.9132 145.392 59.0726 144.946 57.251 144.431C55.4294 143.917 53.6644 143.341 51.9065 142.692C51.0476 142.376 50.1958 142.043 49.3487 141.694C49.2873 141.668 49.0018 141.576 48.9876 141.543C48.9829 141.536 49.5587 141.791 49.2543 141.656C49.0466 141.564 48.8343 141.477 48.6266 141.385C48.209 141.203 47.7937 141.017 47.3784 140.826C44.0254 139.285 40.788 137.489 37.7063 135.462C36.9512 134.967 36.208 134.457 35.4718 133.933C35.1037 133.671 34.7403 133.407 34.3769 133.14C34.1551 132.975 33.3693 132.581 33.2985 132.326C33.3434 132.487 33.7657 132.692 33.4472 132.442C33.3717 132.383 33.2962 132.324 33.2183 132.262C33.0413 132.123 32.8644 131.984 32.6898 131.842C32.3146 131.54 31.9394 131.236 31.5689 130.927C30.8776 130.351 30.198 129.761 29.5279 129.159C26.8285 126.734 24.306 124.107 21.9913 121.311C21.7034 120.964 21.4202 120.615 21.1394 120.263C21.0002 120.086 20.861 119.909 20.7218 119.732C20.6911 119.692 20.5448 119.553 20.5448 119.504C20.5448 119.588 20.9271 120.004 20.6604 119.652C20.0965 118.907 19.542 118.158 19.0016 117.394C17.9422 115.891 16.937 114.35 15.9931 112.771C15.0611 111.216 14.188 109.626 13.3739 108.005C12.9657 107.191 12.5717 106.372 12.1941 105.544C12.0054 105.128 11.8189 104.713 11.6372 104.295C11.5877 104.182 11.3376 103.474 11.4815 103.934C11.6255 104.394 11.3399 103.59 11.2951 103.479C9.89349 100.036 8.7538 96.4847 7.89254 92.8673C7.45129 91.015 7.08319 89.1461 6.78588 87.2654C6.71745 86.8336 6.6561 86.3994 6.59475 85.9676C6.51688 85.4201 6.67025 86.5669 6.58295 85.8614C6.54991 85.5924 6.51688 85.3234 6.4862 85.0567C6.37766 84.1129 6.288 83.1643 6.21485 82.2157C5.9199 78.3434 5.92697 74.4499 6.23844 70.58C6.31631 69.5984 6.41542 68.6191 6.5334 67.6422C6.56171 67.4086 6.60183 67.1726 6.6207 66.939C6.6207 66.9296 6.53104 67.5785 6.58059 67.2364C6.59475 67.1373 6.6089 67.0358 6.62306 66.9367C6.69385 66.4364 6.76936 65.9385 6.85194 65.4406C7.1587 63.5623 7.53623 61.6982 7.98692 59.8505C8.86942 56.2355 10.0445 52.7101 11.4461 49.265C11.7057 48.6278 11.2715 49.6614 11.4839 49.1706C11.5617 48.9912 11.6373 48.8119 11.7175 48.6326C11.9133 48.1842 12.1139 47.7406 12.3168 47.297C12.7109 46.4428 13.1214 45.5933 13.5485 44.7556C14.3697 43.1392 15.2522 41.5559 16.1913 40.0055C17.1446 38.434 18.1545 36.8978 19.2234 35.4018C19.4665 35.062 19.7119 34.7222 19.962 34.3848C20.0965 34.2031 20.231 34.0237 20.3655 33.842C20.4315 33.7547 20.9341 33.0775 20.6581 33.455C20.382 33.8326 20.8138 33.2592 20.8988 33.1506C21.038 32.9737 21.1795 32.799 21.3188 32.6221C21.6208 32.2469 21.9275 31.874 22.2367 31.5036C24.5656 28.7191 27.1022 26.107 29.8157 23.6954C30.4882 23.0983 31.1725 22.5108 31.8663 21.9397C32.2131 21.6542 32.5623 21.3687 32.9163 21.0903C33.0673 20.9699 33.2183 20.8519 33.3717 20.7316C33.9333 20.288 32.9706 21.0313 33.5274 20.6112C34.9927 19.5022 36.4887 18.4403 38.0296 17.4398C41.0971 15.4459 44.3132 13.6808 47.645 12.1659C48.0603 11.9771 48.4756 11.7931 48.8956 11.6114C48.9853 11.5736 49.0749 11.5335 49.1646 11.4958C49.5516 11.3282 49.0537 11.4415 48.9876 11.5689C49.0419 11.4627 49.6011 11.3164 49.712 11.2716C50.5615 10.9271 51.4157 10.5991 52.277 10.2876C54.0089 9.65991 55.7645 9.09831 57.5389 8.60277C59.3133 8.10724 61.2057 7.65654 63.0628 7.29078C63.983 7.10909 64.9056 6.94627 65.833 6.79997C66.2978 6.72682 66.765 6.66075 67.2322 6.59468C67.5744 6.54512 66.9255 6.63479 66.9349 6.63479C67.0694 6.62299 67.2039 6.59939 67.336 6.58288C67.605 6.54984 67.874 6.51681 68.143 6.48613C71.9939 6.04723 75.8802 5.91272 79.7547 6.08026C81.6943 6.16285 83.6292 6.32331 85.557 6.55692C85.7576 6.58052 85.9581 6.61355 86.1611 6.63243C85.2904 6.54748 86.0596 6.61827 86.2649 6.64895C86.7651 6.71974 87.263 6.79761 87.7609 6.87784C88.6859 7.02886 89.6061 7.19876 90.524 7.38753C94.2121 8.14027 97.8435 9.17854 101.374 10.4905C102.232 10.8091 103.082 11.1489 103.929 11.4958C104.429 11.701 103.332 11.2362 104.023 11.5359C104.203 11.6137 104.382 11.6916 104.561 11.7695C105.007 11.9653 105.453 12.1659 105.897 12.3712C107.575 13.1475 109.224 13.9876 110.838 14.889C112.452 15.7904 113.964 16.7107 115.475 17.7065C116.256 18.2209 117.025 18.7494 117.785 19.2945C118.124 19.5376 118.464 19.7853 118.799 20.0331C118.981 20.1676 119.16 20.3021 119.34 20.439C119.443 20.5168 119.545 20.5947 119.646 20.6726C119.998 20.9392 119.583 20.5593 119.498 20.557C119.75 20.564 120.345 21.2248 120.557 21.3947C120.906 21.6778 121.256 21.9633 121.6 22.2512C122.315 22.8482 123.018 23.4617 123.71 24.0847C125.045 25.2905 126.336 26.5459 127.579 27.846C128.847 29.1698 130.062 30.5408 131.227 31.9543C131.513 32.3011 131.796 32.6527 132.077 33.0043C132.197 33.1553 132.315 33.3087 132.436 33.4598C132.686 33.7783 132.483 33.3559 132.32 33.3111C132.386 33.33 132.511 33.5612 132.554 33.6179C133.099 34.3352 133.632 35.0643 134.151 35.8006C136.272 38.8139 138.165 41.9853 139.809 45.2818C140.215 46.0959 140.607 46.9171 140.982 47.7477C141.171 48.163 141.355 48.5806 141.534 48.9983C141.572 49.088 141.61 49.1777 141.65 49.2673C141.784 49.5717 141.529 48.9983 141.537 49.0007C141.638 49.0479 141.787 49.6048 141.834 49.7251C142.537 51.4571 143.172 53.2127 143.738 54.9943C144.878 58.5716 145.741 62.2385 146.32 65.948C146.367 66.25 146.629 67.0665 146.525 67.3473C146.522 67.3567 146.442 66.7078 146.485 67.0499C146.501 67.1844 146.52 67.3189 146.537 67.4511C146.565 67.6871 146.593 67.9207 146.619 68.1566C146.723 69.0675 146.81 69.9807 146.879 70.8962C147.023 72.7816 147.091 74.6717 147.093 76.5619C147.093 78.1311 148.474 79.6365 150.095 79.5634C151.716 79.4902 153.099 78.2443 153.096 76.5619C153.085 68.6003 151.867 60.5962 149.406 53.0216C147.03 45.7065 143.566 38.7219 139.106 32.4545C134.536 26.0314 129.078 20.4012 122.825 15.6063C116.718 10.9247 109.908 7.25067 102.688 4.60074C95.255 1.86114 87.3574 0.362732 79.4456 0.0559727C71.5338 -0.250787 63.353 0.704888 55.6559 2.88524C48.2467 4.98537 41.1112 8.22994 34.6742 12.4609C28.2844 16.6635 22.4868 21.7958 17.6236 27.6997C12.6 33.7995 8.58154 40.5388 5.58247 47.8468C2.58576 55.1524 0.8302 62.9181 0.219059 70.7853C-0.392082 78.6525 0.280409 86.9445 2.17518 94.7551C3.99681 102.261 7.00768 109.529 11.0096 116.134C14.969 122.668 19.9266 128.652 25.6439 133.723C31.366 138.799 37.8172 143.06 44.7922 146.21C52.166 149.54 59.908 151.671 67.9425 152.608C75.9581 153.542 84.1153 153.136 92.0224 151.534C99.625 149.995 107.006 147.228 113.78 143.457C120.458 139.74 126.612 134.974 131.89 129.445C137.155 123.928 141.638 117.606 145.036 110.777C148.514 103.786 150.963 96.2889 152.143 88.5656C152.752 84.5872 153.094 80.5804 153.099 76.5548C153.099 74.9832 151.716 73.4801 150.097 73.5532C148.469 73.6264 147.098 74.8723 147.096 76.5548H147.093Z" fill="black"/>
<path d="M21.5051 51.3462C24.5018 49.8478 32.6095 46.2941 43.1428 47.7973C52.5199 49.1352 58.8438 53.772 61.4724 55.9523C62.8929 54.8457 64.6649 53.6988 66.8098 52.7385C73.589 49.7062 79.9835 50.4118 83.1549 51.0112C84.8585 47.8586 87.9897 43.0755 93.3602 38.9248C102.761 31.657 112.86 31.0812 116.605 31.0576C117.789 35.8903 118.946 42.9764 118.306 51.4902C117.801 58.2059 116.329 63.7818 114.904 67.8947C116.605 69.6456 118.526 71.9015 120.383 74.7048C122.426 77.7913 123.839 80.7126 124.823 83.1478C122.933 82.8269 121.043 82.5083 119.153 82.1874C120.279 82.8528 121.897 84.0043 123.358 85.8803C124.248 87.0224 124.845 88.1338 125.248 89.047C124.035 89.5425 122.822 90.0381 121.61 90.5336C122.145 91.6309 122.681 92.8768 123.172 94.2643C123.813 96.0812 124.245 97.7708 124.538 99.2621C123.736 99.5972 122.931 99.9346 122.129 100.27C123.464 102.785 124.807 105.293 126.159 107.799C127.558 110.393 128.964 112.984 130.38 115.57C128.542 115.841 126.704 116.113 124.863 116.386C125.619 116.773 130.505 119.357 130.619 123.39C130.682 125.672 129.191 127.423 128.028 128.666C120.359 136.864 112.391 140.082 112.391 140.082C107.256 143.091 99.868 146.546 90.5192 148.332C80.3729 150.272 72.2935 149.413 67.8811 148.908C61.9419 148.228 57.5672 147.058 56.2741 146.701C52.1636 145.566 45.9177 143.447 39.0064 139.41C33.0625 135.939 28.4707 132.121 25.0965 128.857C25.3537 128.534 25.9884 127.741 26.248 127.418C28.1946 124.985 30.146 122.555 32.0998 120.126C30.2923 119.886 28.4872 119.647 26.6798 119.407C28.0979 117.531 29.8912 114.728 31.2315 111.013C32.7699 106.749 33.1003 102.981 33.1215 100.461C31.845 101.532 30.5708 102.603 29.2942 103.675C30.5849 99.8048 31.8756 95.9373 33.1687 92.0674C31.9394 92.6432 30.7124 93.2189 29.483 93.7947C31.845 90.5006 34.2069 87.2064 36.5689 83.9147C33.8176 80.9249 30.4835 76.6775 27.5929 71.0591C23.6099 63.3169 22.1115 56.1694 21.498 51.3462H21.5051Z" fill="#FAFAF9"/>
<path d="M22.7179 53.4181C23.0317 53.2623 23.3479 53.1089 23.6665 52.9603C23.8552 52.873 24.044 52.788 24.2328 52.7031C24.3437 52.6535 24.4522 52.6063 24.5631 52.5591C24.6127 52.5379 24.6622 52.5167 24.7094 52.4954C24.9666 52.3821 24.1714 52.7149 24.4381 52.611C25.4952 52.1981 26.5452 51.7899 27.6306 51.4501C28.9591 51.0348 30.3111 50.6926 31.6774 50.426C32.0171 50.3599 32.3593 50.2985 32.7014 50.2419C32.9067 50.2089 33.1097 50.1758 33.3149 50.1452C33.4046 50.131 33.4943 50.1192 33.5816 50.1074C33.9261 50.0555 33.1332 50.1593 33.4848 50.1216C34.2989 50.0295 35.113 49.9446 35.9318 49.8974C37.7487 49.7912 39.5726 49.8242 41.3848 49.9918C41.6397 50.0154 41.8945 50.0413 42.147 50.072C42.2579 50.0838 42.3664 50.098 42.4773 50.1121C42.5056 50.1145 42.8714 50.1664 42.6 50.1286C42.3287 50.0909 42.6826 50.1428 42.7109 50.1475C42.8148 50.164 42.9186 50.1782 43.0224 50.1947C43.2961 50.2372 43.5698 50.2844 43.8436 50.3339C44.7025 50.4897 45.5543 50.6761 46.399 50.8932C47.9823 51.299 49.5373 51.8135 51.0522 52.4293C51.1324 52.4624 51.2126 52.4954 51.2929 52.5285C51.5453 52.6299 51.1206 52.4577 51.1159 52.4529C51.2528 52.5402 51.4321 52.5898 51.5807 52.6559C51.9323 52.8116 52.2815 52.9744 52.6284 53.142C53.2584 53.4464 53.8814 53.7673 54.4949 54.1071C55.6464 54.7442 56.7672 55.4427 57.8455 56.1954C58.275 56.4974 58.6973 56.8089 59.1174 57.1251C59.5043 57.4177 58.6525 56.757 59.0112 57.0449C59.0938 57.111 59.1763 57.1747 59.2589 57.2408C59.4312 57.3776 59.6011 57.5168 59.7686 57.6561C60.8682 58.5645 62.0504 58.5173 63.1641 57.6561C62.645 58.0572 63.2939 57.5664 63.393 57.4932C63.5959 57.3469 63.7988 57.203 64.0041 57.0614C64.4383 56.7641 64.8819 56.4809 65.3349 56.2096C66.267 55.6527 67.2344 55.1571 68.2302 54.7206C67.8291 54.8952 68.5346 54.6003 68.6148 54.5672C68.8602 54.4728 69.108 54.3808 69.3557 54.2935C69.9079 54.1 70.4648 53.923 71.0287 53.7673C72.0221 53.4912 73.0344 53.2765 74.0537 53.1184C74.1835 53.0995 74.3133 53.0806 74.4431 53.0617C74.1269 53.1042 74.1056 53.1089 74.3817 53.0735C74.6342 53.0476 74.8843 53.0193 75.1368 52.9957C75.5639 52.9579 75.991 52.9296 76.4181 52.9131C77.2628 52.8777 78.1099 52.88 78.9547 52.9202C79.6885 52.9556 80.4223 53.0169 81.1515 53.1042C81.8192 53.1844 80.7409 53.0405 81.1586 53.1042C81.319 53.1278 81.4795 53.1514 81.6399 53.1774C81.9301 53.2246 82.2204 53.2741 82.5083 53.3284C83.537 53.5219 84.6862 53.208 85.2195 52.2241C85.7409 51.2613 86.3002 50.3174 86.8995 49.4019C87.2298 48.8969 87.5696 48.399 87.9236 47.9105C88.1194 47.6392 88.32 47.3702 88.5229 47.1035C88.8792 46.6316 88.1949 47.5094 88.5725 47.0422C88.7023 46.8817 88.8297 46.7189 88.9618 46.5584C89.9529 45.3456 91.017 44.1964 92.1496 43.1156C92.7042 42.5871 93.2775 42.075 93.8627 41.5818C94.1954 41.301 94.5329 41.0273 94.875 40.7607C94.4857 41.0651 95.0661 40.6191 95.0968 40.5955C95.3328 40.4209 95.5687 40.2486 95.8094 40.0787C97.1756 39.1113 98.6056 38.2382 100.09 37.4665C100.727 37.1362 101.373 36.8224 102.029 36.5274C102.202 36.4495 102.376 36.3622 102.553 36.2961C101.989 36.5014 102.579 36.2867 102.674 36.2489C103.07 36.0861 103.471 35.9327 103.875 35.7841C106.298 34.8945 108.809 34.2503 111.359 33.8515C111.562 33.8185 112.523 33.7028 111.661 33.8019C111.959 33.7689 112.256 33.7264 112.553 33.6934C113.091 33.6344 113.632 33.5872 114.174 33.5495C114.981 33.4952 115.788 33.4645 116.598 33.4598C115.826 32.8722 115.054 32.2847 114.283 31.6971C114.757 33.6344 115.144 35.5906 115.441 37.5633C115.479 37.8181 115.491 38.0966 115.555 38.3467C115.394 37.712 115.576 38.5119 115.597 38.6936C115.673 39.3142 115.741 39.9348 115.798 40.5554C115.916 41.8131 115.996 43.0755 116.041 44.338C116.14 47.1767 116.055 50.0201 115.781 52.847C115.718 53.5077 115.64 54.1637 115.559 54.8221C115.548 54.9165 115.493 55.2964 115.559 54.8244C115.536 55.0014 115.51 55.176 115.484 55.353C115.427 55.7353 115.368 56.1152 115.307 56.4951C115.102 57.741 114.861 58.9822 114.585 60.214C114.049 62.5949 113.377 64.9451 112.582 67.2529C112.303 68.0576 112.631 69.0014 113.2 69.589C114.158 70.5801 115.076 71.6089 115.944 72.6778C116.05 72.8076 116.156 72.9398 116.26 73.0719C116.355 73.1899 116.645 73.5651 116.392 73.2371C116.652 73.5745 116.907 73.9167 117.157 74.2636C117.641 74.9314 118.105 75.6109 118.554 76.3023C119.41 77.6214 120.201 78.9853 120.92 80.3846C121.244 81.0099 121.55 81.6423 121.845 82.2818C121.996 82.6074 122.143 82.9354 122.284 83.2658C122.346 83.405 122.603 83.8769 122.31 83.3248C122.386 83.4711 122.438 83.6339 122.499 83.7873L125.453 80.8329C123.563 80.512 121.673 80.1935 119.783 79.8725C118.589 79.6696 117.445 80.0896 116.949 81.2624C116.487 82.3573 116.897 83.6433 117.931 84.2616C118.393 84.5377 119.002 84.8326 119.37 85.2267C118.962 84.7901 119.297 85.1724 119.42 85.2786C119.559 85.3942 119.698 85.5146 119.833 85.6349C120.149 85.9181 120.453 86.2154 120.743 86.5245C120.887 86.6779 121.027 86.8313 121.164 86.9894C121.213 87.046 121.598 87.5132 121.461 87.3386C121.324 87.164 121.69 87.6548 121.735 87.7185C121.855 87.8931 121.973 88.0677 122.086 88.2471C122.494 88.8889 122.851 89.5638 123.162 90.2575C123.641 89.0824 124.12 87.9049 124.597 86.7298C123.384 87.2253 122.171 87.7209 120.958 88.2164C119.453 88.8323 118.787 90.2221 119.524 91.7441C119.682 92.0721 119.837 92.4025 119.988 92.7352C120.059 92.8933 120.128 93.0514 120.198 93.2095C119.984 92.7305 120.269 93.3818 120.288 93.4266C120.585 94.1605 120.857 94.9061 121.105 95.6589C121.56 97.0487 121.928 98.4669 122.214 99.9016C122.773 98.9176 123.332 97.9313 123.891 96.9473C123.089 97.2823 122.284 97.6198 121.482 97.9548C120.76 98.2569 120.239 98.6014 119.925 99.3447C119.62 100.067 119.679 100.791 120.045 101.483C122.763 106.601 125.515 111.7 128.294 116.783C128.773 115.608 129.252 114.43 129.729 113.255C127.891 113.526 126.053 113.798 124.212 114.072C123.292 114.208 122.603 115.237 122.492 116.068C122.372 116.969 122.787 118.024 123.639 118.461C124.014 118.654 124.38 118.862 124.736 119.086C125.007 119.256 125.274 119.433 125.534 119.619C125.694 119.735 126.204 120.211 125.628 119.678C125.784 119.822 125.961 119.947 126.121 120.089C126.425 120.355 126.718 120.636 126.994 120.931C127.14 121.089 127.282 121.323 127.447 121.457C127.103 121.179 127.204 121.127 127.324 121.304C127.402 121.42 127.485 121.533 127.56 121.651C127.688 121.849 127.806 122.052 127.912 122.26C127.945 122.323 127.99 122.47 128.035 122.515C127.811 122.293 127.872 122.08 127.954 122.333C128.028 122.559 128.105 122.781 128.16 123.015C128.174 123.078 128.186 123.255 128.216 123.298C128.169 122.899 128.16 122.831 128.188 123.093L128.2 123.239C128.209 123.385 128.209 123.532 128.205 123.678C128.2 123.843 128.261 124.249 128.228 123.694C128.242 123.919 128.129 124.19 128.063 124.405C128.056 124.431 127.891 124.997 128.002 124.622C128.113 124.247 127.926 124.775 127.905 124.818C127.775 125.077 127.626 125.327 127.468 125.57C127.391 125.691 127.31 125.806 127.225 125.922C127.084 126.118 127.096 126.325 127.247 125.903C127.185 126.078 126.954 126.259 126.829 126.399C126.411 126.875 125.97 127.333 125.526 127.788C124.571 128.768 123.575 129.709 122.546 130.611C122.093 131.007 121.633 131.399 121.166 131.779C120.916 131.982 120.666 132.185 120.413 132.383C120.314 132.461 120.217 132.541 120.116 132.616C120.59 132.269 120.083 132.64 120.014 132.692C117.478 134.606 114.762 136.342 111.878 137.687C111.746 137.749 111.612 137.81 111.477 137.869C111.425 137.893 111.373 137.914 111.324 137.937C111.015 138.079 111.904 137.692 111.782 137.744C111.038 138.06 110.359 138.475 109.653 138.865C107.836 139.87 105.975 140.795 104.075 141.633C103.83 141.741 103.582 141.845 103.337 141.954C102.992 142.105 103.879 141.729 103.325 141.958C103.212 142.006 103.098 142.053 102.987 142.098C102.412 142.334 101.831 142.565 101.248 142.784C100.087 143.226 98.9123 143.634 97.7301 144.011C95.1534 144.832 92.5295 145.5 89.8726 146.008C89.193 146.137 88.5111 146.258 87.8268 146.366C87.4941 146.421 87.1614 146.47 86.8263 146.517C86.706 146.534 86.2176 146.602 86.6966 146.539C86.4795 146.567 86.2624 146.595 86.0453 146.621C84.7334 146.782 83.4167 146.904 82.0977 146.989C79.7947 147.136 77.4846 147.166 75.1793 147.084C73.3671 147.02 71.5573 146.885 69.7545 146.701C69.0112 146.626 68.2703 146.543 67.5294 146.456C67.1943 146.416 66.8616 146.373 66.5289 146.331C67.0103 146.395 66.5336 146.331 66.4109 146.314C66.2363 146.291 66.0593 146.265 65.8847 146.239C65.25 146.144 64.6176 146.045 63.9876 145.937C60.7172 145.375 57.4845 144.615 54.3226 143.61C53.3457 143.301 52.3783 142.971 51.4156 142.619C50.9153 142.437 50.4174 142.249 49.9196 142.055C49.6624 141.954 49.4028 141.852 49.1456 141.748C48.9993 141.689 48.8554 141.63 48.7091 141.571C48.6454 141.545 48.072 141.307 48.3764 141.435C48.7232 141.581 48.131 141.328 48.1263 141.326C48.0059 141.274 47.8856 141.222 47.7629 141.168C47.4868 141.048 47.2107 140.925 46.937 140.8C46.3046 140.514 45.677 140.219 45.054 139.915C43.7916 139.299 42.5458 138.648 41.3211 137.961C38.9237 136.616 36.6042 135.136 34.3768 133.532C33.8576 133.159 33.3456 132.779 32.8359 132.392C32.7345 132.317 32.3782 132.038 32.7769 132.347C32.6755 132.267 32.5717 132.189 32.4702 132.109C32.2201 131.911 31.97 131.713 31.7198 131.512C30.8232 130.79 29.9454 130.047 29.0865 129.282C28.3055 128.588 27.5386 127.876 26.7859 127.149V130.545C29.1148 127.63 31.4508 124.721 33.7892 121.816C34.4122 121.04 34.6953 120.162 34.2847 119.192C33.8742 118.222 33.0766 117.847 32.0903 117.715C30.2828 117.474 28.4777 117.236 26.6703 116.995C27.3616 118.199 28.053 119.404 28.7444 120.608C33.0884 114.834 35.4362 107.663 35.5141 100.449C35.5235 99.491 34.903 98.6179 34.037 98.2545C33.0979 97.8581 32.1729 98.1129 31.4131 98.7501C30.1365 99.8214 28.8623 100.893 27.5858 101.964C28.9237 102.743 30.2616 103.521 31.5995 104.3C32.8902 100.43 34.1809 96.5626 35.474 92.6927C35.776 91.7843 35.3324 90.7248 34.6127 90.1679C33.8034 89.5425 32.8454 89.5591 31.9464 89.9791C30.717 90.5549 29.49 91.1306 28.2606 91.7064C29.3555 92.8013 30.4504 93.8962 31.5476 94.9934C33.9096 91.6993 36.2715 88.4052 38.6335 85.1134C39.2683 84.2309 38.9332 82.9378 38.2583 82.2039C37.5835 81.4701 36.944 80.7386 36.314 79.9811C35.9884 79.5894 35.6675 79.193 35.3513 78.7918C35.2805 78.6998 35.2026 78.6101 35.1342 78.5157C35.4457 78.9475 35.2545 78.6715 35.1838 78.5794C34.9832 78.3128 34.7803 78.0461 34.5821 77.7771C33.0837 75.7431 31.7175 73.6146 30.4952 71.406C29.7991 70.1483 29.1479 68.8622 28.5461 67.555C28.4211 67.2836 28.2984 67.0099 28.1757 66.7361C28.1167 66.6016 28.0553 66.4648 27.9964 66.3279C28.0082 66.3562 27.7274 65.6884 27.8595 66.007C27.9916 66.3256 27.7203 65.6649 27.7297 65.6908C27.6754 65.5587 27.6212 65.4242 27.5693 65.2897C27.4371 64.9593 27.3097 64.6289 27.1846 64.2986C26.314 61.9979 25.5895 59.6406 25.0114 57.2502C24.7424 56.1411 24.5065 55.025 24.3036 53.9042C24.2092 53.385 24.1219 52.8635 24.0393 52.342C24.0039 52.1084 23.9685 51.8725 23.9355 51.6388C23.9189 51.5256 23.9048 51.41 23.8883 51.2967C23.8623 51.1244 23.9708 51.9291 23.8953 51.3368C23.7372 50.0956 22.9043 48.8709 21.4933 48.9346C20.33 48.9866 18.9213 50.0012 19.0912 51.3368C20.3866 61.4528 23.9944 71.2007 29.943 79.521C31.4603 81.6423 33.1002 83.6811 34.8652 85.6019C34.7401 84.632 34.6151 83.6622 34.49 82.6924C32.128 85.9865 29.7661 89.2806 27.4041 92.5724C26.8118 93.3983 27.0502 94.8141 27.7793 95.4819C28.6169 96.2512 29.6811 96.329 30.6887 95.8571C31.918 95.2813 33.145 94.7056 34.3744 94.1298L30.8468 91.4185C29.5561 95.2884 28.2654 99.1559 26.9723 103.026C26.6514 103.991 27.1776 105.263 28.0766 105.737C29.0818 106.268 30.1342 106.077 30.986 105.362C32.2625 104.291 33.5367 103.219 34.8133 102.148L30.7146 100.449C30.7076 101.126 30.6816 101.806 30.632 102.481C30.6037 102.868 30.5683 103.255 30.5259 103.642C30.507 103.816 30.4858 103.991 30.4645 104.166C30.3984 104.715 30.5353 103.736 30.4504 104.248C30.1389 106.141 29.7189 107.998 29.1007 109.815C28.9426 110.277 28.775 110.735 28.5981 111.188C28.5461 111.322 28.4919 111.455 28.4376 111.589C28.3432 111.818 28.3291 111.853 28.3951 111.695C28.4612 111.54 28.447 111.573 28.3503 111.794C28.2937 111.919 28.2394 112.047 28.1804 112.172C27.817 112.97 27.4206 113.751 26.9935 114.515C26.2809 115.792 25.4786 117.014 24.5985 118.182C24.0983 118.845 24.2021 119.931 24.5985 120.606C25.0681 121.41 25.7996 121.679 26.6726 121.795C28.4801 122.035 30.2852 122.274 32.0927 122.515C31.5263 121.148 30.96 119.782 30.3937 118.416C28.0553 121.323 25.7217 124.232 23.3904 127.144C22.5905 128.145 22.3734 129.558 23.3904 130.54C31.0898 137.975 40.3159 143.7 50.3797 147.331C57.6379 149.951 65.309 151.274 72.9966 151.77C83.4993 152.447 94.16 150.812 103.924 146.859C106.14 145.963 108.322 144.979 110.444 143.877C111.34 143.412 112.228 142.926 113.103 142.423C113.318 142.301 113.858 141.866 113.025 142.378C113.037 142.371 113.051 142.369 113.063 142.364C113.315 142.244 113.582 142.147 113.839 142.034C116.475 140.878 118.96 139.332 121.298 137.666C123.478 136.111 125.567 134.414 127.511 132.569C129.479 130.703 131.499 128.732 132.52 126.172C134.377 121.519 130.899 117.252 127.166 114.921C126.81 114.697 126.442 114.489 126.069 114.296C125.878 115.759 125.687 117.222 125.496 118.685C127.334 118.413 129.172 118.142 131.013 117.868C132.612 117.632 133.113 115.553 132.447 114.341C129.665 109.258 126.916 104.156 124.198 99.0403C123.719 100.215 123.24 101.393 122.763 102.568C123.566 102.233 124.37 101.896 125.173 101.56C126.44 101.03 127.131 100.022 126.85 98.6061C126.206 95.3757 125.114 92.2656 123.679 89.3019C123.2 90.477 122.721 91.6545 122.244 92.8296C123.457 92.3341 124.67 91.8385 125.883 91.343C127.424 90.713 128.009 89.3538 127.317 87.8153C125.876 84.599 123.382 81.8972 120.361 80.0944L118.511 84.4834C120.401 84.8043 122.291 85.1229 124.181 85.4438C125.052 85.5901 125.866 85.4792 126.517 84.8255C127.07 84.2734 127.447 83.2563 127.136 82.4894C124.675 76.425 121.154 70.8892 116.598 66.1769C116.803 66.9556 117.008 67.7343 117.216 68.513C120.677 58.482 121.647 47.7288 120.213 37.2259C119.899 34.9299 119.467 32.6504 118.917 30.3993C118.669 29.3846 117.631 28.6295 116.602 28.6366C105.087 28.7145 93.7754 33.6037 86.2152 42.3747C84.2496 44.6542 82.5153 47.1342 81.0807 49.7794L83.7919 48.6751C77.4115 47.4787 70.8706 48.1064 64.9834 50.9286C63.1098 51.8276 61.4109 52.9674 59.771 54.2345H63.1665C58.9852 50.7776 54.1858 48.1465 48.9757 46.5985C41.9629 44.5173 34.372 44.5149 27.3404 46.5065C24.9123 47.1932 22.5456 48.1276 20.2875 49.2532C19.1619 49.8148 18.7561 51.4996 19.4262 52.5402C20.1695 53.6918 21.5074 54.0033 22.7132 53.4015L22.7179 53.4181Z" fill="black"/>
<path d="M112.093 36.5628C107.591 38.4128 103.719 41.747 101.779 46.2847C101.024 48.0498 100.583 49.8691 100.392 51.7757C100.326 52.4341 100.906 53.0452 101.494 53.2222C101.781 53.3095 102.065 53.4039 102.345 53.5125C102.428 53.5431 102.508 53.5762 102.591 53.6092C102.444 53.5479 102.454 53.5526 102.619 53.6257C102.803 53.713 102.987 53.798 103.167 53.8924C103.907 54.2746 104.611 54.7324 105.236 55.2846C105.58 55.589 105.906 55.9146 106.21 56.2568C106.317 56.3748 106.416 56.4975 106.52 56.6178C106.633 56.7594 106.647 56.7759 106.564 56.6674C106.623 56.7429 106.68 56.8207 106.734 56.8986C107.095 57.4012 107.414 57.9298 107.692 58.4796C108.058 59.2017 109.075 59.4093 109.745 59.0176C110.479 58.5882 110.651 57.6891 110.283 56.9647C108.66 53.7649 105.713 51.3628 102.286 50.3269L103.388 51.7734C103.402 51.6247 103.419 51.4737 103.438 51.325C103.459 51.1504 103.433 51.3651 103.428 51.3887C103.438 51.3203 103.45 51.2495 103.459 51.1811C103.513 50.8366 103.577 50.4944 103.653 50.1523C103.818 49.4066 104.037 48.6704 104.309 47.9554C104.556 47.3041 104.891 46.6316 105.26 45.9992C105.429 45.709 105.606 45.4211 105.795 45.1426C105.894 44.9963 105.996 44.85 106.097 44.7085C106.137 44.6518 106.397 44.3097 106.265 44.4796C107.017 43.5121 107.893 42.639 108.841 41.865C108.903 41.8155 109.2 41.5819 109.077 41.6763C108.943 41.7801 109.217 41.5724 109.261 41.5394C109.479 41.3813 109.698 41.2256 109.922 41.0769C110.311 40.815 110.713 40.5696 111.121 40.3383C111.529 40.1071 111.904 39.9136 112.308 39.7224C112.466 39.6469 112.622 39.5761 112.782 39.5053C112.846 39.477 112.912 39.4511 112.975 39.4204C112.964 39.4251 112.6 39.5761 112.883 39.4605C113.634 39.1537 114.165 38.4624 113.931 37.6129C113.735 36.905 112.839 36.2537 112.084 36.5652L112.093 36.5628Z" fill="black"/>
<path d="M27.8192 57.9251C30.7781 58.9586 33.3595 59.9945 36.0943 61.2782C37.319 61.854 38.5554 62.4321 39.6975 63.1612C39.8273 63.2438 39.9547 63.3288 40.0821 63.4161C40.1647 63.4727 40.2449 63.5317 40.3275 63.5907C40.2213 63.5034 40.2355 63.5152 40.37 63.6261C40.6177 63.8337 40.8419 64.0603 41.0684 64.2915C41.2808 64.5086 40.9835 64.1169 41.1463 64.3906C41.2147 64.5062 41.2784 64.6525 41.3587 64.7587C41.4058 64.8578 41.394 64.8295 41.3233 64.6714C41.3492 64.7446 41.3704 64.8201 41.3893 64.8956C41.4224 65.0655 41.4247 65.0466 41.3917 64.8413C41.3988 64.931 41.4011 65.023 41.3964 65.1127L42.4983 63.6662C40.9386 64.1617 39.4521 65.0631 38.3407 66.2689C36.427 68.3455 35.7357 71.1039 36.1746 73.8577C36.302 74.66 37.3025 75.1036 38.0222 74.9054C38.8763 74.6718 39.1972 73.8624 39.0698 73.0578C39.0179 72.7368 39.0627 73.0979 39.0722 73.1002C39.0604 73.1002 39.0462 72.8501 39.0462 72.8312C39.0273 72.6 39.0179 72.3664 39.0203 72.1351C39.0273 71.4886 39.0509 71.2762 39.2326 70.6273C39.5181 69.6032 39.9924 68.8622 40.6413 68.2062C40.7876 68.0599 40.9386 67.9184 41.0944 67.7839C41.184 67.706 41.2761 67.6305 41.3705 67.5573C41.0826 67.7862 41.3846 67.555 41.4318 67.5219C41.7362 67.3096 42.0524 67.1184 42.3804 66.9462C42.5054 66.8801 42.6328 66.8187 42.7603 66.7598C42.8122 66.7362 42.9207 66.7055 42.9656 66.6677C42.9278 66.7008 42.5951 66.8117 42.8216 66.7314C42.9797 66.6748 43.1331 66.6134 43.2935 66.5639C43.9306 66.361 44.3908 65.797 44.3955 65.1174C44.4238 61.7572 40.5045 60.0653 37.949 58.8524C34.9122 57.4083 31.788 56.1459 28.6167 55.0368C27.8758 54.7772 26.9414 55.3318 26.7691 56.0845C26.578 56.9222 27.024 57.6537 27.8168 57.9321L27.8192 57.9251Z" fill="black"/>
<path d="M53.2085 78.4944C53.3147 78.2113 54.4001 75.467 57.2364 74.7543C58.8763 74.3414 60.252 74.8228 60.7852 75.0422" fill="#E6E6E6"/>
<path d="M55.5234 79.1316C55.6862 78.6998 55.1907 79.8607 55.4432 79.3298C55.547 79.1127 55.6603 78.9027 55.7853 78.6974C55.8632 78.5676 55.9481 78.4426 56.0331 78.3175C56.3327 77.8668 55.6579 78.7588 56.0284 78.3199C56.269 78.0343 56.6088 77.8078 56.833 77.5199C56.7952 77.5671 56.3681 77.8503 56.6371 77.6709C56.741 77.6002 56.8424 77.527 56.951 77.4609C57.1138 77.3595 57.3969 77.284 57.5267 77.1495C57.4724 77.2037 57.0123 77.3429 57.3309 77.2344C57.4654 77.1896 57.5975 77.1424 57.7344 77.1023C57.8429 77.0716 57.9538 77.048 58.0623 77.022C58.6287 76.8781 57.7485 77.022 58.0623 77.0126C58.3431 77.0055 58.6192 76.9843 58.9 77.0008C59.2988 77.0268 58.9944 77.0338 58.7891 76.9725C58.8953 77.0032 59.018 77.0126 59.1289 77.0362C59.4781 77.1117 59.8179 77.2202 60.1506 77.3547C60.6886 77.5742 61.5239 77.3925 62.0005 77.1117C62.4772 76.8309 62.9727 76.248 63.1048 75.677C63.2441 75.0611 63.2157 74.3721 62.8618 73.827C62.5079 73.2819 62.0383 72.9728 61.4272 72.7227C59.0416 71.7552 56.0732 72.1068 54.0203 73.6713C52.5833 74.7662 51.5356 76.1678 50.8938 77.855C50.4479 79.0325 51.3893 80.5403 52.5715 80.8093C53.9401 81.1208 55.0468 80.3917 55.5258 79.1316H55.5234Z" fill="black"/>
<path d="M89.0159 69.9194C89.2636 69.6692 90.88 68.0835 93.367 68.218C95.5449 68.3337 96.8899 69.6881 97.1778 69.9925" fill="#E6E6E6"/>
<path d="M90.7125 71.6183C90.8281 71.5027 90.9532 71.3965 91.0759 71.288C91.4275 70.9765 90.5803 71.6348 90.9508 71.3847C91.09 71.2903 91.2269 71.1959 91.3708 71.1086C91.5148 71.0213 91.6681 70.9387 91.8215 70.8632C92.0858 70.7334 92.1872 70.8302 91.7035 70.9057C91.7838 70.8939 91.8734 70.842 91.9513 70.816C92.1707 70.7429 92.3949 70.6815 92.6214 70.6343C92.7111 70.6155 93.1476 70.5352 92.7394 70.6084C92.3312 70.6815 92.8125 70.6155 92.881 70.6131C93.1264 70.6037 93.3694 70.6249 93.6148 70.6367C93.9216 70.6509 93.0981 70.5187 93.5252 70.632C93.6455 70.665 93.7705 70.6863 93.8909 70.7193C94.0112 70.7523 94.1221 70.7854 94.2354 70.8255C94.3251 70.8561 94.7215 71.0119 94.3321 70.8538C93.9428 70.6957 94.502 70.9505 94.6153 71.0142C94.7781 71.1063 94.9386 71.2077 95.0919 71.3139C95.5544 71.6372 94.6766 70.9458 95.0518 71.2832C95.1981 71.413 95.3421 71.5428 95.4789 71.6868C96.3473 72.5976 98.0131 72.6283 98.8744 71.6868C99.7357 70.7452 99.8017 69.261 98.8744 68.2912C97.3524 66.696 95.0849 65.7356 92.8786 65.8088C90.8163 65.8772 88.7729 66.7503 87.3146 68.2204C86.4298 69.1147 86.3566 70.7358 87.3146 71.616C88.2726 72.4961 89.7663 72.5693 90.7101 71.616L90.7125 71.6183Z" fill="black"/>
<path d="M69.9956 85.5925C69.8399 87.2868 73.8111 90.3237 77.7659 89.1415C81.1991 88.115 83.226 84.3254 82.3695 82.9072C80.9348 80.5263 70.2387 82.9332 69.9956 85.5925Z" fill="black"/>
<path d="M68.8439 85.5924C68.7613 86.9563 69.8892 88.1102 70.8873 88.8653C72.204 89.8611 73.825 90.4322 75.4673 90.5431C78.6623 90.7602 81.8831 88.7261 83.188 85.8143C83.6694 84.7359 84.0186 83.3649 83.339 82.2865C82.8388 81.4913 81.9114 81.0925 81.0171 80.9321C78.7425 80.5286 76.2908 80.9439 74.1011 81.5904C72.1355 82.1709 69.12 83.2044 68.8462 85.5924C68.7755 86.2107 69.4267 86.744 69.9977 86.744C70.6797 86.744 71.0784 86.213 71.1492 85.5924C71.102 86.0148 71.1186 85.7647 71.1539 85.668C71.2106 85.5169 70.9888 85.9275 71.1233 85.7387C71.1563 85.6916 71.187 85.6326 71.2153 85.5806C71.3356 85.3636 71.0997 85.6774 71.2059 85.5901C71.3238 85.4933 71.4229 85.3636 71.5386 85.2621C71.6447 85.1677 71.7155 85.1347 71.5456 85.2503C71.6259 85.196 71.7037 85.137 71.784 85.0828C72.1237 84.8562 72.4848 84.6651 72.8529 84.4905C72.9614 84.4409 73.07 84.3914 73.1785 84.3442C72.9685 84.4386 73.1997 84.3347 73.287 84.3017C73.5088 84.2144 73.733 84.1318 73.9595 84.0539C74.9152 83.7236 75.9015 83.4782 76.8973 83.3012C77.0294 83.2776 77.1639 83.2563 77.2984 83.2351C77.3503 83.228 77.6736 83.1832 77.5414 83.1997C77.4235 83.2139 77.7184 83.1785 77.7821 83.1738C77.9119 83.1596 78.0393 83.1478 78.1691 83.136C78.6269 83.0983 79.087 83.077 79.5471 83.0888C79.7571 83.0935 79.9671 83.1053 80.1748 83.1242C80.3069 83.136 80.4532 83.162 80.2196 83.1242C80.3187 83.1407 80.4154 83.1549 80.5145 83.1738C80.6844 83.2068 80.852 83.2493 81.0171 83.3012C81.0879 83.3248 81.1564 83.3531 81.2272 83.3767C81.0219 83.3083 81.0856 83.3035 81.2224 83.3861C81.2696 83.4145 81.3593 83.49 81.4112 83.5041C81.3263 83.4829 81.1823 83.3295 81.3593 83.4734C81.5481 83.6268 81.3451 83.4074 81.3263 83.4074C81.3617 83.4074 81.4159 83.5725 81.4395 83.5985C81.2932 83.4215 81.3664 83.4711 81.423 83.6363C81.4796 83.8014 81.4301 83.3861 81.4159 83.6504C81.4112 83.7401 81.4088 83.8321 81.4088 83.9218C81.4088 83.9926 81.364 84.1271 81.4206 83.8604C81.4088 83.9171 81.4018 83.9737 81.3876 84.0303C81.331 84.2569 81.2673 84.4787 81.1823 84.6981C81.1351 84.8208 81.1965 84.6698 81.2036 84.6533C81.1752 84.717 81.1469 84.7784 81.1163 84.8397C81.0549 84.9671 80.9865 85.0922 80.918 85.2149C80.7788 85.4579 80.6231 85.6939 80.4556 85.9181C80.4414 85.937 80.3777 86.0219 80.4556 85.9181C80.406 85.9794 80.3565 86.0408 80.3045 86.0998C80.2007 86.2225 80.0922 86.3405 79.9789 86.4561C79.1129 87.3457 78.1101 87.9356 76.8619 88.181C75.4437 88.4595 73.9525 88.0678 72.7585 87.3575C72.1993 87.0248 71.9279 86.7888 71.4536 86.272C71.3356 86.1422 71.5504 86.4136 71.4536 86.2744C71.4088 86.2107 71.364 86.1493 71.3238 86.0833C71.2625 85.9865 71.2129 85.8827 71.1587 85.7812C71.2719 85.9983 71.1917 85.7907 71.1445 85.6915C71.0714 85.5358 71.1539 85.734 71.1516 85.7883C71.1563 85.7222 71.1469 85.6562 71.1516 85.5901C71.1893 84.9695 70.5947 84.4386 70.0001 84.4386C69.3465 84.4386 68.8864 84.9671 68.8486 85.5901L68.8439 85.5924Z" fill="black"/>
<path d="M52.5271 97.5962C53.9051 99.871 55.4671 102.15 57.4374 103.956C58.7446 105.154 60.2666 106.207 61.9986 106.674C63.7305 107.141 65.5757 106.948 67.2275 106.164C68.9665 105.341 70.2973 103.814 71.6305 102.474C71.9538 102.15 72.2794 101.83 72.6145 101.518C72.8056 101.341 72.9967 101.169 73.195 100.999C73.2964 100.912 73.3955 100.827 73.4993 100.742C73.6362 100.628 74.1624 100.289 73.5418 100.697C74.0161 100.385 74.4573 100.034 74.9458 99.7412C75.203 99.5878 75.4649 99.4415 75.7315 99.3046C75.8684 99.2339 76.0076 99.1654 76.1468 99.0993C76.2412 99.0545 76.338 99.012 76.4323 98.9672C76.6636 98.8657 76.6258 98.8823 76.3214 99.0144C76.5527 98.8492 76.9538 98.7808 77.2252 98.6982C77.4965 98.6156 77.7915 98.5425 78.0794 98.4835C78.2115 98.4575 78.405 98.4575 78.5277 98.4056L78.1808 98.4528C78.2776 98.441 78.372 98.4316 78.4687 98.4245C78.792 98.3985 79.12 98.3891 79.4432 98.3962C79.7122 98.4032 79.9812 98.4198 80.2502 98.4457C80.3823 98.4599 80.5145 98.4811 80.6466 98.4906C79.8821 98.4268 80.354 98.4528 80.531 98.4811C81.0997 98.5731 81.6636 98.6911 82.2299 98.802C83.5088 99.0522 84.809 99.2716 86.1139 99.2952C87.2748 99.3164 88.4475 99.1701 89.5825 98.9295C91.1375 98.6015 92.6476 97.9974 94.0469 97.2541C98.9549 94.6513 102.61 90.0311 105.503 85.4131C106.171 84.3466 105.765 82.7207 104.642 82.1261C103.462 81.5031 102.07 81.85 101.355 82.9874C100.571 84.2404 99.7359 85.4556 98.8487 86.6378C98.4971 87.1074 99.1743 86.232 98.8133 86.6827C98.7095 86.8101 98.6104 86.9399 98.5066 87.0673C98.306 87.3151 98.1031 87.5605 97.8954 87.8035C97.5061 88.2613 97.1026 88.7073 96.6897 89.1415C95.9511 89.9131 95.1724 90.6469 94.3466 91.3242C94.2073 91.4398 93.5891 91.8905 94.264 91.3997C94.0752 91.5365 93.8912 91.6805 93.7024 91.815C93.3437 92.0698 92.978 92.3152 92.6028 92.5465C91.928 92.9618 91.2271 93.3157 90.5075 93.6461C90.1441 93.8136 91.1162 93.4031 90.7458 93.5446C90.6632 93.5777 90.5806 93.6107 90.498 93.6437C90.3494 93.7004 90.2007 93.757 90.0497 93.8089C89.7241 93.9222 89.3961 94.026 89.0634 94.1157C88.7897 94.1888 88.5136 94.2549 88.2352 94.3139C88.0912 94.3446 87.9449 94.3705 87.7986 94.3965C87.7278 94.4083 87.657 94.4201 87.5863 94.4319C87.1427 94.5074 88.1148 94.3847 87.5674 94.4319C86.9822 94.4814 86.3994 94.5098 85.8118 94.4838C85.5169 94.472 85.2219 94.4484 84.9293 94.4177C84.8585 94.4106 84.3772 94.3469 84.8231 94.4083C85.2691 94.4696 84.6698 94.3823 84.5872 94.3682C83.5277 94.1959 82.4848 93.9434 81.4206 93.7924C79.9435 93.58 78.5867 93.5517 77.1072 93.7971C74.455 94.2384 72.0293 95.7273 70.0024 97.431C68.5489 98.651 67.3478 100.138 65.8943 101.355C65.8778 101.369 65.656 101.553 65.6536 101.551C65.6465 101.542 66.1774 101.164 65.8967 101.36C65.7338 101.473 65.5734 101.589 65.4035 101.695C65.2336 101.801 65.0637 101.886 64.8915 101.978C64.6862 102.087 64.4242 102.082 65.1109 101.893C65.0189 101.919 64.9292 101.962 64.8372 101.992C64.6508 102.054 64.4596 102.103 64.2662 102.141C64.0396 102.186 63.7565 102.134 64.5045 102.115C64.4007 102.117 64.2968 102.134 64.193 102.139C63.9736 102.148 63.7588 102.139 63.5418 102.122C62.9872 102.084 64.2662 102.261 63.7093 102.143C63.5842 102.117 63.4615 102.094 63.3388 102.061C63.1855 102.021 63.0344 101.976 62.8858 101.924C62.8174 101.9 62.7513 101.874 62.6852 101.851C62.2274 101.686 63.2421 102.11 62.9165 101.95C62.5908 101.789 62.2794 101.634 61.975 101.443C61.7909 101.327 61.6163 101.204 61.4393 101.081C61.2883 100.978 60.9934 100.713 61.6092 101.221C61.529 101.155 61.4488 101.093 61.3685 101.027C60.5049 100.317 59.738 99.4958 59.0325 98.6321C58.9381 98.5165 58.8485 98.4009 58.7541 98.2853C58.5984 98.0847 58.629 98.1272 58.8485 98.408C58.7848 98.3254 58.7211 98.2404 58.6597 98.1555C58.4615 97.8912 58.2704 97.6222 58.0816 97.3508C57.5884 96.6406 57.1236 95.9114 56.6753 95.1728C56.024 94.0992 54.4926 93.6013 53.3883 94.3115C52.31 95.0076 51.831 96.4471 52.5271 97.5986V97.5962Z" fill="black"/>
<path d="M62.3078 105.898C63.1195 108.031 63.8108 110.211 64.3748 112.422C64.7453 113.876 65.0614 115.341 65.321 116.818C65.4767 117.701 65.5758 118.602 65.7858 119.475C66.6707 123.147 70.8283 124.176 74.1224 124.006C78.3862 123.789 82.6618 122.201 86.1753 119.806C90.5028 116.854 93.693 112.632 95.038 107.533C96.0621 103.646 96.0739 99.5405 95.3353 95.6046C95.1017 94.3681 93.5444 93.5516 92.3811 93.9268C91.0597 94.3539 90.4533 95.555 90.7034 96.8812C90.7341 97.0487 90.7648 97.2186 90.7931 97.3861C90.8403 97.6622 90.9582 98.6391 90.8308 97.582C90.9111 98.2545 90.9818 98.9247 91.0172 99.6019C91.0621 100.456 91.0668 101.315 91.0267 102.172C91.0054 102.629 90.9724 103.09 90.9229 103.545C90.9087 103.675 90.8922 103.802 90.8804 103.932C90.8379 104.326 90.9111 103.708 90.9158 103.687C90.8615 103.996 90.8237 104.309 90.7671 104.619C90.5736 105.695 90.2976 106.756 89.9342 107.788C89.8516 108.024 89.7643 108.255 89.6723 108.488L89.6156 108.628C89.5165 108.866 89.5401 108.814 89.6817 108.474C89.6109 108.522 89.5307 108.814 89.4929 108.894C89.2286 109.465 88.9361 110.02 88.6128 110.56C88.3202 111.051 88.0016 111.528 87.6619 111.988L87.6123 112.054C87.4566 112.262 87.4778 112.233 87.6807 111.967C87.6383 112.078 87.4778 112.219 87.4023 112.311C87.2277 112.521 87.046 112.729 86.862 112.929C86.1541 113.706 85.3801 114.402 84.5708 115.067C84.1838 115.386 85.0309 114.727 84.6274 115.025C84.5189 115.105 84.4103 115.188 84.3018 115.268C84.1201 115.4 83.936 115.53 83.7496 115.657C83.306 115.959 82.8506 116.247 82.3858 116.519C81.9657 116.764 81.5363 116.998 81.1021 117.215C80.8685 117.333 80.6302 117.446 80.3919 117.557C80.1984 117.646 79.3631 117.972 80.1323 117.682C79.2286 118.024 78.3366 118.369 77.4022 118.626C76.9799 118.741 76.5551 118.845 76.1257 118.935C75.9369 118.975 75.7458 119.01 75.557 119.046C75.3258 119.086 74.3678 119.187 75.3022 119.095C74.5188 119.173 73.7448 119.242 72.9544 119.211C72.7774 119.204 72.6028 119.194 72.4258 119.178C72.3314 119.171 72.2394 119.157 72.1474 119.15C71.7533 119.119 72.7562 119.244 72.4683 119.194C72.1403 119.138 71.8147 119.081 71.4914 118.989C71.3357 118.944 71.1799 118.897 71.0266 118.84C71.0124 118.836 70.8048 118.763 70.8071 118.755C70.8118 118.732 71.4206 119.041 71.1705 118.904C70.9204 118.767 70.6679 118.616 70.4178 118.461C71.1493 118.916 70.7316 118.715 70.5381 118.522C70.4626 118.446 70.3965 118.35 70.3187 118.281C70.8472 118.741 70.6396 118.706 70.4579 118.418C70.4367 118.385 70.4249 118.345 70.4036 118.312C70.2337 118.038 70.6585 119.027 70.5287 118.597C70.2856 117.795 70.1889 116.957 70.052 116.134C69.8043 114.659 69.507 113.196 69.153 111.745C68.5631 109.326 67.8222 106.945 66.9373 104.619C66.7085 104.019 66.4064 103.519 65.833 103.184C65.3186 102.882 64.5588 102.754 63.9831 102.941C62.841 103.311 61.8264 104.637 62.3054 105.895L62.3078 105.898Z" fill="black"/>
<path d="M77.6711 97.1996C77.3266 98.3394 76.9821 99.8732 76.9042 101.709C76.8169 103.75 77.0906 105.463 77.3832 106.697" fill="#E6E6E6"/>
<path d="M75.354 96.5626C74.3063 100.057 74.2331 103.79 75.0661 107.337C75.354 108.562 76.8193 109.404 78.0203 109.015C79.2969 108.602 80.0048 107.372 79.698 106.06C79.6272 105.758 79.5635 105.456 79.5069 105.154C79.4715 104.961 79.4408 104.767 79.4101 104.574C79.3252 104.066 79.4597 105.076 79.4101 104.59C79.3252 103.729 79.2709 102.872 79.2945 102.006C79.3063 101.558 79.3346 101.112 79.3795 100.666C79.396 100.492 79.3653 99.8568 79.3913 100.503C79.3842 100.317 79.455 100.1 79.4857 99.9158C79.6107 99.2149 79.7806 98.5235 79.9835 97.8416C80.3446 96.6382 79.5517 95.1704 78.3058 94.8873C77.06 94.6041 75.7386 95.2766 75.3516 96.565L75.354 96.5626Z" fill="black"/>
<path d="M42.416 111.157C41.7789 112.944 41.1441 115.207 40.7855 117.873C40.3584 121.054 40.4575 123.815 40.6887 125.931C42.3829 124.365 44.0771 122.798 45.7737 121.231C45.474 122.328 45.1295 124.124 45.3891 126.316C45.7147 129.065 46.8285 131.054 47.4986 132.071" fill="#E6E6E6"/>
<path d="M41.2597 110.839C39.5537 115.655 38.9402 120.851 39.49 125.931C39.6009 126.953 40.7265 127.531 41.5405 126.781C43.2347 125.214 44.9289 123.647 46.6255 122.08C45.9554 121.691 45.2876 121.302 44.6175 120.912C43.5415 124.893 44.2045 129.223 46.465 132.678C46.819 133.22 47.5292 133.447 48.1073 133.11C48.6453 132.793 48.8954 132.012 48.5391 131.467C46.6279 128.546 46.0238 124.917 46.9346 121.552C47.2555 120.365 45.7949 119.581 44.9266 120.384C43.2324 121.951 41.5382 123.517 39.8416 125.084C40.5259 125.367 41.2078 125.651 41.8921 125.934C41.3635 121.04 41.9322 116.12 43.5769 111.481C43.794 110.869 43.3315 110.166 42.7392 110.003C42.0762 109.822 41.4792 110.228 41.2621 110.841L41.2597 110.839Z" fill="black"/>
<path d="M111.168 104.687C111.623 105.305 112.086 105.923 112.551 106.544C114.188 108.724 115.831 110.85 117.475 112.925C115.179 112.693 112.883 112.46 110.585 112.229C111.373 112.759 112.914 113.953 113.95 116.058C115.425 119.055 114.887 121.875 114.689 122.734" fill="#E6E6E6"/>
<path d="M110.132 105.293C112.249 108.156 114.415 110.983 116.626 113.774C116.909 113.09 117.192 112.408 117.475 111.724C115.179 111.492 112.884 111.259 110.585 111.027C110.068 110.976 109.556 111.438 109.427 111.91C109.28 112.446 109.535 112.965 109.979 113.267C110.102 113.349 110.222 113.437 110.345 113.524C110.439 113.592 110.491 113.64 110.368 113.541C110.451 113.607 110.533 113.673 110.614 113.741C110.946 114.022 111.262 114.326 111.555 114.647C112.275 115.438 112.869 116.398 113.23 117.425C113.591 118.446 113.757 119.463 113.745 120.539C113.742 120.771 113.731 121 113.714 121.228C113.707 121.318 113.636 121.896 113.681 121.604C113.639 121.877 113.589 122.146 113.528 122.415C113.384 123.048 113.721 123.716 114.365 123.893C114.972 124.058 115.696 123.69 115.842 123.055C116.326 120.941 116.246 118.656 115.481 116.615C114.648 114.385 113.153 112.524 111.187 111.193C110.984 111.938 110.783 112.684 110.581 113.43C112.876 113.661 115.172 113.895 117.471 114.126C117.933 114.173 118.407 113.786 118.568 113.387C118.764 112.903 118.634 112.472 118.32 112.075C116.234 109.446 114.195 106.78 112.202 104.081C111.817 103.559 111.161 103.297 110.559 103.649C110.045 103.948 109.74 104.767 110.127 105.291L110.132 105.293Z" fill="black"/>
</g>
<defs>
<clipPath id="clip0_109_2">
<rect width="154" height="154" fill="white"/>
</clipPath>
</defs>
</svg>
