<svg width="20" height="20" viewBox="0 0 21 21" fill="none" xmlns="http://www.w3.org/2000/svg">
<path d="M0 21L1.95 14.3C1.63333 13.6167 1.39583 12.9167 1.2375 12.2C1.07917 11.4833 1 10.75 1 10C1 8.61667 1.2625 7.31667 1.7875 6.1C2.3125 4.88333 3.025 3.825 3.925 2.925C4.825 2.025 5.88333 1.3125 7.1 0.7875C8.31667 0.2625 9.61667 0 11 0C12.3833 0 13.6833 0.2625 14.9 0.7875C16.1167 1.3125 17.175 2.025 18.075 2.925C18.975 3.825 19.6875 4.88333 20.2125 6.1C20.7375 7.31667 21 8.61667 21 10C21 11.3833 20.7375 12.6833 20.2125 13.9C19.6875 15.1167 18.975 16.175 18.075 17.075C17.175 17.975 16.1167 18.6875 14.9 19.2125C13.6833 19.7375 12.3833 20 11 20C10.25 20 9.51667 19.9208 8.8 19.7625C8.08333 19.6042 7.38333 19.3667 6.7 19.05L0 21ZM2.95 18.05L6.15 17.1C6.38333 17.0333 6.62083 17.0083 6.8625 17.025C7.10417 17.0417 7.33333 17.1 7.55 17.2C8.08333 17.4667 8.64167 17.6667 9.225 17.8C9.80833 17.9333 10.4 18 11 18C13.2333 18 15.125 17.225 16.675 15.675C18.225 14.125 19 12.2333 19 10C19 7.76667 18.225 5.875 16.675 4.325C15.125 2.775 13.2333 2 11 2C8.76667 2 6.875 2.775 5.325 4.325C3.775 5.875 3 7.76667 3 10C3 10.6 3.06667 11.1917 3.2 11.775C3.33333 12.3583 3.53333 12.9167 3.8 13.45C3.91667 13.6667 3.97917 13.8958 3.9875 14.1375C3.99583 14.3792 3.96667 14.6167 3.9 14.85L2.95 18.05Z" fill="currentColor"/>
</svg>
