<svg width="135" height="136" viewBox="0 0 135 136" fill="none" xmlns="http://www.w3.org/2000/svg">
<path d="M67.3384 132.97C103.071 132.97 132.039 104.002 132.039 68.2677C132.039 32.5335 103.071 3.56531 67.3384 3.56531C31.6053 3.56531 2.638 32.5335 2.638 68.2677C2.638 104.002 31.6053 132.97 67.3384 132.97Z" fill="currentColor"/>
<path d="M129.396 68.2677C129.394 69.9906 129.33 71.7136 129.193 73.4302C129.126 74.2647 129.046 75.0971 128.948 75.9274C128.923 76.135 128.896 76.3405 128.871 76.5481C128.811 77.0359 128.954 75.9627 128.859 76.6394C128.801 77.0504 128.74 77.4593 128.674 77.8683C128.149 81.1563 127.366 84.4049 126.337 87.5726C125.839 89.1066 125.282 90.624 124.67 92.1165C124.626 92.2224 124.581 92.3282 124.539 92.4341C124.429 92.706 124.637 92.1912 124.639 92.1995C124.662 92.3303 124.458 92.6209 124.4 92.7517C124.228 93.1461 124.053 93.5384 123.873 93.9287C123.539 94.6552 123.19 95.3755 122.831 96.0896C121.382 98.9562 119.717 101.713 117.859 104.333C117.629 104.656 117.397 104.978 117.162 105.296C117.025 105.483 116.614 106.261 116.396 106.313C116.39 106.313 116.728 105.887 116.55 106.114C116.498 106.18 116.446 106.248 116.392 106.315C116.269 106.471 116.147 106.626 116.022 106.78C115.757 107.112 115.489 107.44 115.217 107.766C114.204 108.982 113.148 110.161 112.049 111.301C110.931 112.461 109.77 113.578 108.568 114.651C107.979 115.179 107.379 115.695 106.769 116.202C106.464 116.455 106.156 116.704 105.847 116.953C105.691 117.078 105.538 117.2 105.382 117.323C105.316 117.375 105.247 117.427 105.181 117.481C104.913 117.692 105.706 117.082 105.245 117.431C102.686 119.367 100.008 121.134 97.1955 122.685C95.7716 123.469 94.3165 124.202 92.8365 124.877C92.4982 125.03 92.1578 125.184 91.8173 125.331C91.6845 125.389 91.396 125.591 91.2652 125.57C91.2569 125.57 91.7717 125.36 91.4998 125.47C91.3669 125.524 91.2341 125.58 91.1012 125.634C90.356 125.939 89.6046 126.23 88.8491 126.506C85.7645 127.635 82.5928 128.524 79.3713 129.167C78.5327 129.335 77.692 129.485 76.8493 129.62C76.4694 129.68 76.0896 129.736 75.7076 129.79C75.0289 129.885 76.1041 129.742 75.6163 129.802C75.3797 129.832 75.1451 129.861 74.9085 129.89C73.2105 130.087 71.5043 130.218 69.796 130.282C66.3897 130.409 62.973 130.274 59.5896 129.869C59.382 129.844 59.1765 129.817 58.971 129.792C58.668 129.757 59.2388 129.825 59.2326 129.827C59.1786 129.848 58.9129 129.784 58.8797 129.778C58.4687 129.719 58.0598 129.657 57.6509 129.591C56.8372 129.46 56.0256 129.313 55.2161 129.151C53.5845 128.823 51.9655 128.43 50.363 127.978C48.7605 127.525 47.2079 127.019 45.6615 126.448C44.9059 126.17 44.1566 125.877 43.4114 125.57C43.3574 125.547 43.1063 125.466 43.0938 125.437C43.0897 125.431 43.5961 125.655 43.3284 125.537C43.1457 125.456 42.9589 125.379 42.7762 125.298C42.4088 125.138 42.0435 124.974 41.6782 124.806C38.7286 123.451 35.8807 121.871 33.1698 120.088C32.5055 119.652 31.8517 119.203 31.2041 118.743C30.8802 118.512 30.5606 118.28 30.2409 118.045C30.0458 117.9 29.3546 117.553 29.2923 117.329C29.3317 117.47 29.7033 117.651 29.4231 117.431C29.3567 117.379 29.2902 117.327 29.2217 117.273C29.0661 117.151 28.9104 117.028 28.7568 116.904C28.4267 116.638 28.0967 116.37 27.7708 116.098C27.1626 115.592 26.5648 115.073 25.9753 114.543C23.6007 112.409 21.3817 110.099 19.3454 107.639C19.0922 107.334 18.8431 107.027 18.5961 106.718C18.4736 106.562 18.3512 106.406 18.2287 106.251C18.2017 106.215 18.073 106.093 18.073 106.049C18.073 106.124 18.4093 106.489 18.1747 106.18C17.6786 105.524 17.1908 104.866 16.7155 104.193C15.7835 102.871 14.8992 101.516 14.0689 100.127C13.249 98.759 12.481 97.3599 11.7649 95.9339C11.4058 95.2177 11.0591 94.4974 10.727 93.7688C10.561 93.4035 10.397 93.0381 10.2371 92.6707C10.1936 92.5711 9.97353 91.9484 10.1001 92.3531C10.2268 92.7579 9.9756 92.0501 9.93616 91.9525C8.70318 88.9239 7.70061 85.7999 6.94297 82.6177C6.55481 80.9882 6.23099 79.3442 5.96945 77.6898C5.90925 77.3099 5.85529 76.9279 5.80132 76.5481C5.73282 76.0665 5.86774 77.0753 5.79094 76.4547C5.76188 76.218 5.73282 75.9814 5.70583 75.7468C5.61035 74.9165 5.53147 74.082 5.46712 73.2476C5.20766 69.8412 5.21389 66.4161 5.48788 63.0118C5.55638 62.1483 5.64356 61.2869 5.74735 60.4275C5.77226 60.222 5.80754 60.0144 5.82415 59.8089C5.82415 59.8006 5.74527 60.3714 5.78886 60.0704C5.80132 59.9833 5.81377 59.894 5.82622 59.8068C5.8885 59.3668 5.95492 58.9288 6.02757 58.4908C6.29741 56.8384 6.62953 55.1986 7.02599 53.5732C7.80232 50.3931 8.83603 47.2919 10.069 44.2612C10.2973 43.7008 9.91541 44.61 10.1022 44.1782C10.1707 44.0204 10.2371 43.8627 10.3077 43.7049C10.48 43.3105 10.6564 42.9203 10.835 42.53C11.1816 41.7786 11.5428 41.0313 11.9185 40.2944C12.6408 38.8725 13.4172 37.4796 14.2433 36.1158C15.0819 34.7334 15.9703 33.382 16.9106 32.066C17.1244 31.767 17.3403 31.4681 17.5603 31.1713C17.6786 31.0115 17.7969 30.8537 17.9153 30.6939C17.9734 30.6171 18.4155 30.0213 18.1726 30.3534C17.9298 30.6856 18.3096 30.1811 18.3844 30.0857C18.5068 29.93 18.6314 29.7764 18.7539 29.6207C19.0195 29.2906 19.2894 28.9627 19.5613 28.6368C21.6101 26.1873 23.8415 23.8894 26.2285 21.768C26.8201 21.2428 27.4221 20.7259 28.0323 20.2236C28.3375 19.9724 28.6447 19.7212 28.956 19.4763C29.0889 19.3704 29.2217 19.2666 29.3567 19.1608C29.8507 18.7705 29.0038 19.4244 29.4937 19.0549C30.7827 18.0793 32.0987 17.1452 33.4541 16.265C36.1526 14.511 38.9818 12.9583 41.9127 11.6257C42.2781 11.4596 42.6434 11.2977 43.0129 11.1378C43.0917 11.1046 43.1706 11.0693 43.2495 11.0361C43.5899 10.8888 43.1519 10.9884 43.0938 11.1005C43.1416 11.0071 43.6335 10.8784 43.7311 10.8389C44.4783 10.5359 45.2297 10.2473 45.9874 9.97333C47.511 9.42117 49.0553 8.92713 50.6162 8.49121C52.1772 8.0553 53.8419 7.65882 55.4755 7.33707C56.2851 7.17724 57.0967 7.03401 57.9124 6.90531C58.3213 6.84096 58.7323 6.78284 59.1433 6.72472C59.4443 6.68112 58.8735 6.76 58.8818 6.76C59.0001 6.74963 59.1184 6.72887 59.2347 6.71434C59.4713 6.68528 59.7079 6.65621 59.9446 6.62923C63.3321 6.24313 66.7509 6.12481 70.1592 6.27219C71.8655 6.34485 73.5676 6.486 75.2634 6.6915C75.4399 6.71226 75.6163 6.74132 75.7948 6.75793C75.0289 6.6832 75.7056 6.74547 75.8861 6.77246C76.3262 6.83473 76.7642 6.90323 77.2022 6.97381C78.0158 7.10666 78.8254 7.25612 79.6328 7.42218C82.8772 8.08436 86.0717 8.99771 89.177 10.1518C89.9326 10.4321 90.6798 10.731 91.425 11.0361C91.8651 11.2167 90.8999 10.8078 91.5081 11.0714C91.6658 11.1399 91.8236 11.2084 91.9813 11.2769C92.3736 11.4492 92.7659 11.6257 93.1562 11.8063C94.632 12.4892 96.083 13.2282 97.5028 14.0211C98.9226 14.8141 100.253 15.6236 101.582 16.4996C102.269 16.9521 102.945 17.4171 103.614 17.8966C103.913 18.1104 104.212 18.3284 104.506 18.5463C104.666 18.6647 104.824 18.783 104.982 18.9034C105.073 18.9719 105.162 19.0404 105.251 19.1089C105.561 19.3434 105.195 19.0092 105.121 19.0072C105.343 19.0134 105.866 19.5946 106.053 19.7441C106.36 19.9932 106.667 20.2443 106.97 20.4976C107.599 21.0228 108.218 21.5625 108.826 22.1105C110.001 23.1712 111.136 24.2755 112.23 25.4193C113.345 26.5838 114.414 27.7898 115.439 29.0332C115.69 29.3384 115.939 29.6477 116.186 29.957C116.292 30.0898 116.396 30.2247 116.502 30.3576C116.722 30.6378 116.543 30.2663 116.4 30.2268C116.458 30.2434 116.568 30.4468 116.606 30.4967C117.085 31.1277 117.554 31.7691 118.011 32.4168C119.877 35.0676 121.542 37.8574 122.989 40.7573C123.346 41.4734 123.69 42.1958 124.02 42.9265C124.186 43.2918 124.348 43.6593 124.506 44.0267C124.539 44.1055 124.572 44.1844 124.608 44.2633C124.726 44.5311 124.502 44.0267 124.508 44.0287C124.597 44.0703 124.728 44.5601 124.77 44.666C125.388 46.1896 125.946 47.734 126.445 49.3013C127.447 52.4482 128.207 55.6739 128.715 58.9371C128.757 59.2028 128.987 59.921 128.896 60.168C128.894 60.1763 128.823 59.6055 128.861 59.9065C128.875 60.0248 128.892 60.1431 128.906 60.2593C128.931 60.4669 128.956 60.6724 128.979 60.88C129.07 61.6813 129.147 62.4846 129.207 63.29C129.334 64.9486 129.394 66.6113 129.396 68.274C129.396 69.6544 130.611 70.9787 132.037 70.9144C133.463 70.85 134.679 69.754 134.677 68.274C134.667 61.2703 133.595 54.2292 131.431 47.5659C129.34 41.1309 126.293 34.9866 122.37 29.4733C118.349 23.823 113.548 18.8702 108.047 14.6522C102.675 10.5338 96.6849 7.30178 90.3332 4.97067C83.7947 2.56068 76.8472 1.24255 69.8873 0.9727C62.9274 0.702848 55.7308 1.54354 48.9598 3.46157C42.442 5.30903 36.165 8.16324 30.5025 11.8851C24.8814 15.5821 19.7813 20.097 15.5033 25.2906C11.084 30.6565 7.54908 36.585 4.91083 43.0137C2.27466 49.4403 0.730317 56.2718 0.192704 63.1924C-0.344909 70.1131 0.246673 77.4074 1.91348 84.2783C3.51594 90.8814 6.16457 97.2748 9.685 103.085C13.1681 108.833 17.5292 114.097 22.5587 118.558C27.5923 123.023 33.2673 126.772 39.4032 129.543C45.8898 132.472 52.7003 134.346 59.7681 135.17C66.8194 135.992 73.9952 135.635 80.9509 134.226C87.6389 132.873 94.1318 130.438 100.091 127.121C105.965 123.851 111.379 119.658 116.022 114.795C120.653 109.941 124.597 104.38 127.586 98.3729C130.646 92.2224 132.8 85.6276 133.838 78.8335C134.374 75.3337 134.675 71.809 134.679 68.2677C134.679 66.8853 133.463 65.563 132.039 65.6273C130.606 65.6917 129.4 66.7877 129.398 68.2677H129.396Z" fill="black"/>
<path d="M18.9178 46.0921C21.554 44.774 28.6862 41.6478 37.9523 42.9701C46.2012 44.1471 51.7641 48.226 54.0765 50.144C55.3261 49.1705 56.885 48.1617 58.7718 47.3168C64.7354 44.6494 70.3606 45.2701 73.1503 45.7973C74.649 43.0241 77.4035 38.8164 82.1279 35.1651C90.3976 28.7717 99.2817 28.2652 102.576 28.2444C103.618 32.4957 104.635 38.7293 104.072 46.2187C103.628 52.1264 102.333 57.0315 101.079 60.6496C102.576 62.1898 104.265 64.1743 105.899 66.6403C107.697 69.3555 108.94 71.9253 109.806 74.0675C108.143 73.7852 106.48 73.505 104.818 73.2227C105.808 73.808 107.232 74.821 108.517 76.4713C109.299 77.476 109.824 78.4537 110.179 79.257C109.112 79.6929 108.045 80.1288 106.978 80.5647C107.45 81.53 107.921 82.626 108.353 83.8466C108.917 85.4449 109.297 86.9312 109.554 88.2431C108.849 88.5378 108.141 88.8347 107.435 89.1294C108.61 91.3422 109.791 93.5488 110.98 95.7533C112.211 98.0346 113.448 100.314 114.694 102.589C113.077 102.828 111.46 103.066 109.841 103.307C110.505 103.648 114.804 105.921 114.904 109.468C114.96 111.475 113.648 113.016 112.624 114.11C105.878 121.321 98.8686 124.152 98.8686 124.152C94.3518 126.799 87.8527 129.838 79.6287 131.409C70.7031 133.115 63.5958 132.36 59.7142 131.916C54.4896 131.318 50.6412 130.288 49.5037 129.975C45.8878 128.976 40.3933 127.112 34.3135 123.561C29.0848 120.507 25.0454 117.148 22.0771 114.278C22.3034 113.993 22.8617 113.296 23.0901 113.011C24.8025 110.871 26.5192 108.733 28.2379 106.597C26.6479 106.385 25.0599 106.176 23.4699 105.964C24.7174 104.314 26.295 101.848 27.474 98.5805C28.8274 94.8296 29.118 91.5145 29.1366 89.2976C28.0137 90.24 26.8928 91.1824 25.7698 92.1248C26.9052 88.7205 28.0407 85.3183 29.1782 81.914C28.0967 82.4205 27.0173 82.927 25.9359 83.4335C28.0137 80.5357 30.0915 77.6379 32.1693 74.7421C29.749 72.1121 26.816 68.3757 24.2732 63.4332C20.7694 56.6226 19.4513 50.335 18.9116 46.0921H18.9178Z" fill="#FAFAF9"/>
<path d="M19.9848 47.9146C20.2608 47.7776 20.539 47.6427 20.8192 47.5119C20.9853 47.4351 21.1513 47.3604 21.3174 47.2857C21.4149 47.2421 21.5104 47.2005 21.608 47.159C21.6516 47.1403 21.6952 47.1217 21.7367 47.103C21.9629 47.0033 21.2634 47.296 21.498 47.2047C22.4279 46.8414 23.3516 46.4823 24.3064 46.1834C25.4751 45.8181 26.6644 45.5171 27.8663 45.2825C28.1652 45.2244 28.4662 45.1704 28.7672 45.1206C28.9477 45.0915 29.1263 45.0625 29.3068 45.0355C29.3857 45.023 29.4646 45.0127 29.5414 45.0023C29.8445 44.9566 29.147 45.0479 29.4563 45.0147C30.1724 44.9338 30.8886 44.8591 31.6088 44.8175C33.2071 44.7241 34.8117 44.7532 36.4058 44.9006C36.63 44.9213 36.8542 44.9442 37.0763 44.9711C37.1738 44.9815 37.2693 44.994 37.3669 45.0064C37.3918 45.0085 37.7135 45.0542 37.4748 45.021C37.2361 44.9878 37.5475 45.0334 37.5724 45.0376C37.6637 45.0521 37.7551 45.0646 37.8464 45.0791C38.0872 45.1164 38.328 45.158 38.5687 45.2016C39.3243 45.3386 40.0736 45.5025 40.8167 45.6935C42.2096 46.0506 43.5775 46.5031 44.9101 47.0449C44.9807 47.0739 45.0512 47.103 45.1218 47.132C45.3439 47.2213 44.9703 47.0698 44.9661 47.0656C45.0865 47.1424 45.2443 47.186 45.375 47.2441C45.6843 47.3811 45.9915 47.5244 46.2967 47.6717C46.8509 47.9395 47.3989 48.2218 47.9386 48.5207C48.9515 49.0812 49.9375 49.6956 50.8861 50.3578C51.2639 50.6235 51.6354 50.8975 52.0049 51.1757C52.3453 51.4331 51.596 50.8519 51.9115 51.1051C51.9842 51.1632 52.0568 51.2193 52.1295 51.2774C52.281 51.3978 52.4304 51.5203 52.5778 51.6427C53.5451 52.4419 54.585 52.4004 55.5648 51.6427C55.1081 51.9956 55.6789 51.5639 55.7661 51.4995C55.9446 51.3708 56.1231 51.2442 56.3037 51.1196C56.6857 50.8581 57.0759 50.609 57.4745 50.3703C58.2944 49.8804 59.1454 49.4445 60.0214 49.0604C59.6685 49.2141 60.2891 48.9546 60.3597 48.9255C60.5756 48.8425 60.7935 48.7615 61.0115 48.6847C61.4972 48.5145 61.9871 48.3588 62.4832 48.2218C63.3571 47.979 64.2475 47.7901 65.1443 47.651C65.2584 47.6344 65.3726 47.6178 65.4868 47.6012C65.2086 47.6385 65.1899 47.6427 65.4328 47.6115C65.6549 47.5887 65.8749 47.5638 66.097 47.543C66.4727 47.5098 66.8484 47.4849 67.2241 47.4704C67.9673 47.4393 68.7124 47.4413 69.4555 47.4766C70.1011 47.5078 70.7467 47.5617 71.3881 47.6385C71.9755 47.7091 71.0269 47.5825 71.3943 47.6385C71.5354 47.6593 71.6766 47.68 71.8177 47.7029C72.073 47.7444 72.3284 47.788 72.5816 47.8357C73.4866 48.0059 74.4975 47.7299 74.9666 46.8643C75.4253 46.0173 75.9173 45.187 76.4445 44.3816C76.7351 43.9374 77.034 43.4994 77.3454 43.0697C77.5177 42.831 77.6941 42.5944 77.8726 42.3598C78.1861 41.9446 77.5841 42.7168 77.9162 42.3058C78.0304 42.1647 78.1425 42.0214 78.2587 41.8803C79.1305 40.8133 80.0667 39.8024 81.063 38.8517C81.5508 38.3867 82.0552 37.9363 82.57 37.5025C82.8627 37.2554 83.1595 37.0146 83.4605 36.7801C83.118 37.0479 83.6286 36.6555 83.6556 36.6348C83.8632 36.4812 84.0707 36.3296 84.2825 36.1802C85.4843 35.3291 86.7422 34.5611 88.0478 33.8823C88.6083 33.5917 89.177 33.3156 89.7541 33.0561C89.9056 32.9876 90.0592 32.9108 90.2149 32.8527C89.7188 33.0333 90.2377 32.8444 90.3207 32.8112C90.6695 32.6679 91.0223 32.533 91.3773 32.4022C93.5091 31.6197 95.7176 31.053 97.9615 30.7022C98.14 30.6731 98.9848 30.5714 98.2272 30.6586C98.4887 30.6295 98.7503 30.5921 99.0118 30.5631C99.4851 30.5112 99.9604 30.4697 100.438 30.4365C101.148 30.3887 101.858 30.3617 102.57 30.3576C101.891 29.8407 101.212 29.3238 100.533 28.807C100.951 30.5112 101.291 32.232 101.553 33.9674C101.586 34.1916 101.596 34.4365 101.652 34.6565C101.511 34.0982 101.671 34.8018 101.689 34.9617C101.756 35.5076 101.816 36.0535 101.866 36.5995C101.97 37.7059 102.04 38.8164 102.08 39.927C102.167 42.4241 102.092 44.9255 101.851 47.4123C101.795 47.9935 101.727 48.5706 101.656 49.1497C101.646 49.2327 101.598 49.5669 101.656 49.1518C101.636 49.3075 101.613 49.4611 101.59 49.6168C101.54 49.953 101.488 50.2872 101.434 50.6214C101.254 51.7175 101.042 52.8093 100.799 53.8929C100.328 55.9874 99.7362 58.0549 99.0367 60.085C98.7918 60.7928 99.0803 61.6231 99.5806 62.14C100.423 63.0118 101.231 63.9169 101.995 64.8572C102.088 64.9714 102.181 65.0876 102.273 65.2039C102.356 65.3077 102.611 65.6377 102.389 65.3492C102.617 65.646 102.842 65.947 103.062 66.2521C103.487 66.8396 103.896 67.4374 104.29 68.0456C105.044 69.206 105.739 70.4058 106.372 71.6367C106.657 72.1868 106.927 72.7431 107.186 73.3057C107.319 73.5921 107.448 73.8807 107.572 74.1713C107.626 74.2938 107.852 74.7089 107.595 74.2232C107.661 74.3519 107.707 74.4951 107.761 74.63L110.36 72.0311C108.697 71.7488 107.034 71.4686 105.372 71.1863C104.322 71.0078 103.315 71.3773 102.879 72.4089C102.472 73.3721 102.833 74.5034 103.742 75.0473C104.149 75.2901 104.685 75.5496 105.009 75.8963C104.649 75.5122 104.944 75.8485 105.052 75.9419C105.175 76.0436 105.297 76.1495 105.415 76.2554C105.694 76.5045 105.961 76.766 106.217 77.038C106.343 77.1729 106.466 77.3078 106.586 77.4469C106.63 77.4967 106.968 77.9077 106.848 77.7541C106.727 77.6005 107.049 78.0323 107.088 78.0883C107.194 78.2419 107.298 78.3955 107.398 78.5533C107.757 79.1179 108.07 79.7116 108.344 80.3218C108.766 79.2881 109.187 78.2523 109.606 77.2185C108.539 77.6545 107.472 78.0904 106.406 78.5263C105.081 79.0681 104.496 80.2907 105.144 81.6296C105.283 81.9181 105.42 82.2087 105.552 82.5014C105.615 82.6405 105.675 82.7796 105.737 82.9187C105.548 82.4973 105.799 83.0702 105.816 83.1096C106.078 83.7552 106.316 84.4112 106.534 85.0733C106.935 86.296 107.259 87.5435 107.51 88.8056C108.002 87.94 108.494 87.0723 108.986 86.2067C108.28 86.5015 107.572 86.7983 106.866 87.0931C106.231 87.3588 105.772 87.6618 105.496 88.3157C105.229 88.9509 105.281 89.5882 105.602 90.1964C107.993 94.6988 110.414 99.1846 112.859 103.656C113.28 102.622 113.702 101.586 114.121 100.552C112.504 100.791 110.887 101.03 109.268 101.271C108.458 101.391 107.852 102.296 107.755 103.027C107.649 103.82 108.014 104.748 108.764 105.132C109.094 105.302 109.415 105.485 109.729 105.682C109.967 105.831 110.202 105.987 110.43 106.151C110.572 106.253 111.02 106.672 110.513 106.203C110.65 106.329 110.806 106.439 110.947 106.564C111.215 106.799 111.472 107.046 111.715 107.305C111.844 107.444 111.968 107.65 112.114 107.768C111.811 107.523 111.9 107.477 112.006 107.633C112.074 107.735 112.147 107.834 112.213 107.938C112.326 108.113 112.429 108.291 112.523 108.474C112.552 108.53 112.591 108.658 112.631 108.698C112.433 108.503 112.487 108.316 112.56 108.538C112.624 108.737 112.693 108.932 112.741 109.138C112.753 109.194 112.764 109.35 112.79 109.387C112.749 109.036 112.741 108.976 112.766 109.206L112.776 109.335C112.784 109.464 112.784 109.593 112.78 109.721C112.776 109.867 112.83 110.224 112.801 109.736C112.813 109.933 112.714 110.172 112.656 110.361C112.649 110.383 112.504 110.882 112.602 110.552C112.699 110.222 112.535 110.687 112.516 110.724C112.402 110.952 112.272 111.172 112.132 111.386C112.064 111.492 111.993 111.594 111.919 111.695C111.794 111.868 111.805 112.05 111.937 111.679C111.883 111.832 111.68 111.992 111.57 112.115C111.203 112.534 110.814 112.937 110.424 113.337C109.583 114.199 108.708 115.027 107.803 115.82C107.404 116.169 106.999 116.513 106.588 116.847C106.368 117.026 106.148 117.204 105.926 117.379C105.839 117.447 105.754 117.518 105.665 117.584C106.082 117.279 105.635 117.605 105.575 117.651C103.344 119.334 100.955 120.862 98.4182 122.045C98.3019 122.099 98.1836 122.153 98.0653 122.205C98.0196 122.226 97.9739 122.245 97.9304 122.265C97.6584 122.39 98.441 122.049 98.3331 122.095C97.6792 122.373 97.0814 122.739 96.4607 123.081C94.8624 123.965 93.2247 124.779 91.5537 125.516C91.3379 125.611 91.1199 125.703 90.904 125.798C90.601 125.931 91.3814 125.601 90.8936 125.802C90.794 125.844 90.6944 125.885 90.5968 125.925C90.0903 126.132 89.5797 126.336 89.067 126.529C88.0457 126.917 87.012 127.276 85.9721 127.608C83.7054 128.331 81.3972 128.918 79.0599 129.364C78.4621 129.479 77.8622 129.585 77.2603 129.68C76.9676 129.728 76.6749 129.771 76.3802 129.813C76.2743 129.827 75.8446 129.888 76.266 129.832C76.075 129.856 75.8841 129.881 75.6931 129.904C74.539 130.045 73.3807 130.153 72.2204 130.228C70.1945 130.357 68.1624 130.384 66.1344 130.311C64.5402 130.255 62.9481 130.137 61.3623 129.975C60.7084 129.908 60.0567 129.836 59.4049 129.759C59.1101 129.724 58.8174 129.686 58.5248 129.649C58.9482 129.705 58.5289 129.649 58.421 129.634C58.2674 129.614 58.1117 129.591 57.9581 129.568C57.3997 129.485 56.8434 129.398 56.2892 129.302C53.4123 128.808 50.5685 128.14 47.787 127.255C46.9277 126.984 46.0766 126.693 45.2297 126.384C44.7897 126.224 44.3517 126.058 43.9137 125.888C43.6875 125.798 43.4591 125.709 43.2329 125.618C43.1042 125.566 42.9776 125.514 42.8489 125.462C42.7928 125.439 42.2884 125.229 42.5562 125.342C42.8613 125.47 42.3403 125.248 42.3362 125.246C42.2303 125.2 42.1245 125.155 42.0165 125.107C41.7737 125.001 41.5308 124.893 41.29 124.783C40.7337 124.532 40.1816 124.273 39.6336 124.005C38.5231 123.463 37.4271 122.89 36.3498 122.286C34.2408 121.103 32.2004 119.801 30.2409 118.39C29.7843 118.062 29.3338 117.728 28.8855 117.387C28.7962 117.321 28.4828 117.076 28.8336 117.348C28.7443 117.277 28.653 117.209 28.5637 117.138C28.3437 116.964 28.1237 116.789 27.9037 116.613C27.1149 115.978 26.3427 115.324 25.5871 114.651C24.9001 114.041 24.2255 113.414 23.5633 112.775V115.762C25.6121 113.198 27.667 110.639 29.7241 108.083C30.2721 107.401 30.5211 106.628 30.16 105.775C29.7988 104.922 29.0972 104.592 28.2295 104.476C26.6395 104.264 25.0516 104.054 23.4616 103.843C24.0698 104.901 24.678 105.962 25.2862 107.021C29.1076 101.941 31.1729 95.6329 31.2414 89.2872C31.2497 88.4444 30.7038 87.6764 29.942 87.3567C29.1159 87.008 28.3022 87.2322 27.6338 87.7926C26.5108 88.735 25.39 89.6774 24.267 90.6198C25.4439 91.3049 26.6209 91.9899 27.7978 92.6749C28.9332 89.2706 30.0686 85.8684 31.2061 82.4641C31.4718 81.6649 31.0816 80.7329 30.4485 80.243C29.7365 79.6929 28.8938 79.7074 28.1029 80.0769C27.0215 80.5834 25.9421 81.0899 24.8606 81.5964C25.8238 82.5596 26.7869 83.5227 27.7521 84.488C29.8299 81.5902 31.9077 78.6924 33.9855 75.7966C34.5439 75.0203 34.2492 73.8828 33.6555 73.2372C33.0618 72.5916 32.4993 71.9481 31.9451 71.2818C31.6586 70.9372 31.3763 70.5885 31.0982 70.2356C31.0359 70.1546 30.9674 70.0758 30.9072 69.9927C31.1812 70.3726 31.0131 70.1297 30.9508 70.0488C30.7744 69.8142 30.5959 69.5796 30.4215 69.343C29.1034 67.5537 27.9016 65.6813 26.8264 63.7384C26.214 62.632 25.6411 61.5007 25.1118 60.3507C25.0018 60.112 24.8939 59.8712 24.7859 59.6304C24.734 59.5121 24.6801 59.3917 24.6282 59.2713C24.6385 59.2962 24.3915 58.7087 24.5078 58.989C24.624 59.2692 24.3853 58.688 24.3936 58.7108C24.3459 58.5946 24.2981 58.4762 24.2525 58.3579C24.1362 58.0673 24.0241 57.7767 23.9141 57.4861C23.1482 55.4622 22.5109 53.3885 22.0024 51.2857C21.7657 50.3101 21.5582 49.3282 21.3796 48.3422C21.2966 47.8856 21.2198 47.4268 21.1472 46.9681C21.116 46.7626 21.0849 46.555 21.0558 46.3495C21.0413 46.2498 21.0289 46.1481 21.0143 46.0485C20.9915 45.8969 21.087 46.6048 21.0205 46.0838C20.8815 44.9919 20.1487 43.9146 18.9075 43.9706C17.8841 44.0163 16.6449 44.9089 16.7944 46.0838C17.9339 54.9827 21.1077 63.5578 26.3406 70.877C27.6753 72.7431 29.118 74.5366 30.6706 76.2263C30.5606 75.3732 30.4506 74.52 30.3406 73.6669C28.2628 76.5647 26.185 79.4625 24.1072 82.3582C23.5861 83.0847 23.7958 84.3302 24.4372 84.9177C25.1741 85.5944 26.1102 85.6629 26.9966 85.2477C28.078 84.7412 29.1574 84.2347 30.2388 83.7282L27.1356 81.3431C26.0002 84.7474 24.8648 88.1497 23.7273 91.5539C23.445 92.4029 23.9079 93.5218 24.6987 93.939C25.583 94.4061 26.5088 94.2379 27.2581 93.609C28.3811 92.6666 29.502 91.7242 30.6249 90.7818L27.0194 89.2872C27.0132 89.8829 26.9903 90.4808 26.9467 91.0744C26.9218 91.4149 26.8907 91.7553 26.8533 92.0957C26.8367 92.2493 26.8181 92.4029 26.7994 92.5566C26.7413 93.0402 26.8616 92.1788 26.7869 92.6292C26.5129 94.294 26.1434 95.9276 25.5996 97.526C25.4605 97.9329 25.3131 98.3356 25.1575 98.7341C25.1118 98.8524 25.0641 98.9687 25.0163 99.087C24.9333 99.2883 24.9208 99.3195 24.979 99.1804C25.0371 99.0434 25.0246 99.0725 24.9395 99.2676C24.8897 99.3776 24.842 99.4897 24.7901 99.5997C24.4704 100.301 24.1217 100.988 23.746 101.661C23.1191 102.784 22.4134 103.859 21.6391 104.887C21.1991 105.47 21.2904 106.425 21.6391 107.019C22.0522 107.726 22.6957 107.963 23.4637 108.065C25.0537 108.277 26.6416 108.486 28.2316 108.698C27.7334 107.496 27.2353 106.294 26.7371 105.092C24.6801 107.65 22.6272 110.209 20.5763 112.771C19.8727 113.651 19.6817 114.894 20.5763 115.758C27.3494 122.298 35.4655 127.334 44.3185 130.529C50.7034 132.833 57.4516 133.998 64.2143 134.434C73.4534 135.029 82.8315 133.591 91.4209 130.114C93.37 129.325 95.29 128.459 97.1561 127.49C97.9449 127.081 98.7254 126.653 99.4955 126.211C99.6843 126.103 100.16 125.721 99.427 126.172C99.4373 126.166 99.4498 126.164 99.4602 126.159C99.6823 126.054 99.9168 125.968 100.143 125.869C102.462 124.852 104.647 123.492 106.704 122.027C108.622 120.659 110.459 119.166 112.17 117.543C113.901 115.901 115.678 114.168 116.577 111.915C118.21 107.822 115.151 104.069 111.867 102.018C111.553 101.821 111.23 101.638 110.902 101.468C110.733 102.755 110.565 104.042 110.397 105.329C112.014 105.09 113.631 104.851 115.25 104.611C116.658 104.403 117.098 102.574 116.512 101.507C114.065 97.0361 111.647 92.5483 109.256 88.0479C108.834 89.0817 108.413 90.1175 107.993 91.1513C108.699 90.8565 109.407 90.5596 110.113 90.2649C111.227 89.7978 111.836 88.9115 111.589 87.666C111.022 84.8242 110.061 82.0883 108.799 79.4812C108.377 80.5149 107.956 81.5507 107.537 82.5845C108.604 82.1485 109.671 81.7126 110.738 81.2767C112.093 80.7225 112.608 79.5268 112 78.1734C110.731 75.3441 108.537 72.9673 105.88 71.3814L104.253 75.2424C105.916 75.5247 107.578 75.8049 109.241 76.0872C110.007 76.2159 110.723 76.1184 111.296 75.5434C111.782 75.0577 112.114 74.163 111.84 73.4883C109.675 68.1536 106.578 63.2838 102.57 59.1384C102.75 59.8234 102.931 60.5084 103.113 61.1934C106.159 52.3693 107.012 42.9099 105.75 33.6705C105.474 31.6508 105.094 29.6456 104.61 27.6653C104.392 26.7727 103.479 26.1084 102.574 26.1147C92.4442 26.1832 82.4932 30.4842 75.8426 38.1999C74.1135 40.2051 72.5878 42.3868 71.3258 44.7137L73.7108 43.7423C68.098 42.6899 62.3441 43.242 57.1652 45.7247C55.517 46.5155 54.0225 47.5181 52.5799 48.6328H55.5669C51.8887 45.5918 47.6666 43.2773 43.0834 41.9156C36.9144 40.0847 30.2368 40.0827 24.0511 41.8346C21.9152 42.4387 19.8332 43.2607 17.8468 44.2508C16.8566 44.7449 16.4996 46.227 17.0891 47.1424C17.743 48.1554 18.9199 48.4294 19.9806 47.9001L19.9848 47.9146Z" fill="black"/>
<path d="M98.607 33.0873C94.6465 34.7147 91.2402 37.6478 89.534 41.6395C88.8697 43.1922 88.4816 44.7927 88.3134 46.4699C88.2553 47.049 88.7659 47.5867 89.2828 47.7424C89.536 47.8192 89.7851 47.9022 90.0321 47.9977C90.1048 48.0247 90.1754 48.0537 90.248 48.0828C90.1193 48.0288 90.1276 48.033 90.2729 48.0973C90.4348 48.1741 90.5967 48.2489 90.7545 48.3319C91.4063 48.6682 92.0248 49.0709 92.5749 49.5566C92.878 49.8244 93.1644 50.1108 93.4322 50.4118C93.5256 50.5156 93.6128 50.6236 93.7041 50.7294C93.8037 50.854 93.8162 50.8685 93.7435 50.773C93.7954 50.8394 93.8452 50.9079 93.893 50.9764C94.2106 51.4186 94.4908 51.8836 94.7357 52.3672C95.0575 53.0024 95.9521 53.1851 96.5416 52.8405C97.1872 52.4627 97.3387 51.6718 97.0149 51.0346C95.5868 48.2198 92.9942 46.1066 89.9802 45.1954L90.9496 46.4678C90.9621 46.3371 90.9766 46.2042 90.9932 46.0734C91.0119 45.9198 90.989 46.1087 90.9849 46.1295C90.9932 46.0693 91.0036 46.007 91.0119 45.9468C91.0596 45.6437 91.1157 45.3427 91.1821 45.0418C91.3274 44.3858 91.5204 43.7382 91.7591 43.1092C91.9771 42.5363 92.2718 41.9447 92.5956 41.3884C92.7451 41.133 92.9008 40.8798 93.0668 40.6349C93.154 40.5062 93.2433 40.3775 93.3325 40.2529C93.3678 40.2031 93.5962 39.9021 93.4799 40.0516C94.1421 39.2005 94.9122 38.4324 95.7466 37.7516C95.8006 37.708 96.0621 37.5025 95.9542 37.5855C95.8359 37.6769 96.0766 37.4942 96.1161 37.4651C96.3071 37.326 96.5001 37.189 96.6973 37.0583C97.0398 36.8279 97.3927 36.612 97.7518 36.4085C98.1109 36.2051 98.4409 36.0349 98.7958 35.8668C98.9349 35.8003 99.0719 35.7381 99.2131 35.6758C99.2691 35.6509 99.3272 35.6281 99.3833 35.6011C99.3729 35.6052 99.0532 35.7381 99.3023 35.6364C99.9624 35.3665 100.429 34.7583 100.224 34.011C100.052 33.3883 99.2629 32.8154 98.5987 33.0894L98.607 33.0873Z" fill="black"/>
<path d="M24.4723 51.8794C27.0753 52.7886 29.3461 53.6999 31.7519 54.8291C32.8292 55.3356 33.9169 55.8442 34.9215 56.4856C35.0357 56.5582 35.1478 56.633 35.2599 56.7098C35.3325 56.7596 35.4031 56.8115 35.4757 56.8634C35.3823 56.7866 35.3948 56.797 35.5131 56.8945C35.7311 57.0772 35.9283 57.2765 36.1275 57.4799C36.3143 57.6709 36.0528 57.3263 36.196 57.5671C36.2562 57.6688 36.3123 57.7975 36.3828 57.8909C36.4244 57.9781 36.414 57.9532 36.3517 57.8141C36.3745 57.8784 36.3932 57.9449 36.4098 58.0113C36.4389 58.1607 36.441 58.1441 36.4119 57.9635C36.4181 58.0424 36.4202 58.1234 36.4161 58.2023L37.3854 56.9298C36.0134 57.3657 34.7057 58.1587 33.728 59.2194C32.0446 61.0461 31.4364 63.4727 31.8225 65.8951C31.9346 66.6009 32.8147 66.9912 33.4478 66.8168C34.1992 66.6113 34.4815 65.8993 34.3694 65.1914C34.3237 64.9091 34.3632 65.2267 34.3715 65.2288C34.3611 65.2288 34.3486 65.0088 34.3486 64.9922C34.332 64.7887 34.3237 64.5832 34.3258 64.3798C34.332 63.8111 34.3528 63.6242 34.5126 63.0534C34.7638 62.1525 35.181 61.5007 35.7518 60.9236C35.8805 60.7949 36.0134 60.6704 36.1504 60.5521C36.2292 60.4836 36.3102 60.4171 36.3932 60.3528C36.14 60.5541 36.4057 60.3507 36.4472 60.3216C36.715 60.1348 36.9931 59.9667 37.2816 59.8152C37.3916 59.757 37.5037 59.7031 37.6158 59.6512C37.6615 59.6304 37.757 59.6034 37.7964 59.5702C37.7632 59.5993 37.4705 59.6968 37.6698 59.6263C37.8089 59.5764 37.9438 59.5225 38.0849 59.4789C38.6454 59.3004 39.0501 58.8042 39.0543 58.2064C39.0792 55.2505 35.6314 53.7621 33.3834 52.6952C30.712 51.4248 27.9637 50.3143 25.1739 49.3386C24.5221 49.1103 23.7002 49.5981 23.5486 50.2603C23.3805 50.9972 23.7728 51.6407 24.4702 51.8856L24.4723 51.8794Z" fill="black"/>
<path d="M46.8072 69.974C46.9006 69.7249 47.8554 67.3108 50.3504 66.6839C51.7931 66.3206 53.0032 66.7441 53.4723 66.9371" fill="currentColor"/>
<path d="M48.8434 70.5345C48.9866 70.1546 48.5507 71.1759 48.7728 70.7089C48.8642 70.5179 48.9638 70.3331 49.0738 70.1525C49.1423 70.0384 49.2171 69.9284 49.2918 69.8183C49.5554 69.4219 48.9617 70.2065 49.2876 69.8204C49.4993 69.5693 49.7983 69.37 49.9954 69.1167C49.9622 69.1582 49.5865 69.4073 49.8232 69.2496C49.9145 69.1873 50.0038 69.123 50.0992 69.0648C50.2425 68.9756 50.4915 68.9092 50.6057 68.7908C50.558 68.8386 50.1532 68.961 50.4334 68.8656C50.5517 68.8261 50.668 68.7846 50.7884 68.7493C50.8839 68.7223 50.9814 68.7016 51.0769 68.6787C51.5751 68.5521 50.8008 68.6787 51.0769 68.6704C51.3239 68.6642 51.5668 68.6455 51.8138 68.6601C52.1646 68.6829 51.8968 68.6891 51.7162 68.6351C51.8096 68.6621 51.9176 68.6704 52.0151 68.6912C52.3223 68.7576 52.6212 68.8531 52.9139 68.9714C53.3872 69.1645 54.122 69.0046 54.5413 68.7576C54.9606 68.5106 55.3965 67.9979 55.5127 67.4955C55.6352 66.9538 55.6103 66.3476 55.2989 65.8681C54.9876 65.3886 54.5745 65.1167 54.0369 64.8966C51.9383 64.0456 49.3271 64.3549 47.5212 65.7311C46.2571 66.6943 45.3354 67.9273 44.7708 69.4115C44.3785 70.4473 45.2067 71.7737 46.2467 72.0104C47.4506 72.2844 48.4241 71.643 48.8455 70.5345H48.8434Z" fill="black"/>
<path d="M78.3062 62.4306C78.5242 62.2106 79.9461 60.8157 82.1339 60.934C84.0498 61.0357 85.2329 62.2272 85.4862 62.495" fill="currentColor"/>
<path d="M79.7987 63.9252C79.9004 63.8235 80.0104 63.7301 80.1184 63.6346C80.4277 63.3606 79.6825 63.9397 80.0084 63.7197C80.1308 63.6366 80.2512 63.5536 80.3778 63.4768C80.5045 63.4 80.6394 63.3274 80.7743 63.2609C81.0068 63.1468 81.0961 63.2319 80.6705 63.2983C80.7411 63.2879 80.82 63.2422 80.8885 63.2194C81.0815 63.1551 81.2787 63.1011 81.478 63.0596C81.5569 63.043 81.9409 62.9724 81.5818 63.0367C81.2227 63.1011 81.6461 63.043 81.7063 63.0409C81.9222 63.0326 82.136 63.0513 82.3519 63.0617C82.6217 63.0741 81.8973 62.9579 82.273 63.0575C82.3789 63.0866 82.4889 63.1052 82.5947 63.1343C82.7006 63.1634 82.7981 63.1924 82.8978 63.2277C82.9767 63.2547 83.3254 63.3917 82.9829 63.2526C82.6404 63.1135 83.1323 63.3377 83.232 63.3938C83.3752 63.4747 83.5163 63.564 83.6513 63.6574C84.0581 63.9418 83.2859 63.3336 83.616 63.6304C83.7447 63.7446 83.8713 63.8588 83.9917 63.9854C84.7556 64.7866 86.221 64.8136 86.9787 63.9854C87.7363 63.1571 87.7944 61.8515 86.9787 60.9983C85.6398 59.5951 83.645 58.7502 81.7042 58.8146C79.8901 58.8748 78.0925 59.6428 76.8097 60.936C76.0313 61.7228 75.9669 63.1488 76.8097 63.9231C77.6524 64.6974 78.9664 64.7617 79.7966 63.9231L79.7987 63.9252Z" fill="black"/>
<path d="M61.5742 76.2181C61.4372 77.7085 64.9307 80.3801 68.4096 79.3401C71.4298 78.4371 73.2128 75.1034 72.4593 73.8559C71.1973 71.7614 61.788 73.8787 61.5742 76.2181Z" fill="black"/>
<path d="M60.5612 76.218C60.4885 77.4178 61.4807 78.4329 62.3587 79.0971C63.517 79.9731 64.943 80.4755 66.3877 80.573C69.1983 80.764 72.0316 78.9747 73.1795 76.4131C73.603 75.4645 73.9102 74.2585 73.3124 73.3098C72.8723 72.6103 72.0565 72.2595 71.2698 72.1183C69.2688 71.7634 67.1122 72.1287 65.1859 72.6975C63.4568 73.2081 60.804 74.1173 60.5632 76.218C60.501 76.7619 61.0739 77.231 61.5762 77.231C62.1761 77.231 62.5269 76.7639 62.5892 76.218C62.5476 76.5896 62.5622 76.3695 62.5933 76.2844C62.6431 76.1516 62.448 76.5128 62.5663 76.3467C62.5954 76.3052 62.6224 76.2533 62.6473 76.2076C62.7531 76.0167 62.5456 76.2927 62.639 76.2159C62.7428 76.1308 62.8299 76.0167 62.9317 75.9274C63.0251 75.8444 63.0873 75.8153 62.9379 75.917C63.0085 75.8693 63.0769 75.8174 63.1475 75.7696C63.4464 75.5704 63.764 75.4022 64.0878 75.2486C64.1833 75.205 64.2788 75.1614 64.3743 75.1199C64.1895 75.203 64.393 75.1116 64.4698 75.0826C64.6649 75.0058 64.8621 74.9331 65.0613 74.8646C65.902 74.574 66.7697 74.3581 67.6456 74.2024C67.7619 74.1817 67.8802 74.163 67.9985 74.1443C68.0442 74.1381 68.3285 74.0986 68.2123 74.1132C68.1085 74.1256 68.368 74.0945 68.424 74.0903C68.5382 74.0779 68.6503 74.0675 68.7644 74.0571C69.1671 74.0239 69.5719 74.0052 69.9767 74.0156C70.1614 74.0198 70.3461 74.0301 70.5288 74.0467C70.645 74.0571 70.7737 74.0799 70.5682 74.0467C70.6554 74.0613 70.7405 74.0737 70.8277 74.0903C70.9772 74.1194 71.1245 74.1568 71.2698 74.2024C71.3321 74.2232 71.3923 74.2481 71.4546 74.2688C71.274 74.2086 71.33 74.2045 71.4504 74.2772C71.4919 74.3021 71.5708 74.3685 71.6165 74.3809C71.5418 74.3623 71.4151 74.2273 71.5708 74.354C71.7369 74.4889 71.5584 74.2958 71.5418 74.2958C71.5729 74.2958 71.6206 74.4411 71.6414 74.464C71.5127 74.3083 71.577 74.3519 71.6269 74.4972C71.6767 74.6425 71.6331 74.2771 71.6206 74.5096C71.6165 74.5885 71.6144 74.6695 71.6144 74.7484C71.6144 74.8106 71.575 74.929 71.6248 74.6944C71.6144 74.7442 71.6082 74.794 71.5957 74.8438C71.5459 75.0431 71.4899 75.2382 71.4151 75.4313C71.3736 75.5392 71.4276 75.4064 71.4338 75.3918C71.4089 75.4479 71.384 75.5019 71.357 75.5558C71.3031 75.6679 71.2429 75.7779 71.1827 75.8859C71.0602 76.0997 70.9232 76.3073 70.7758 76.5045C70.7073 76.5958 70.7634 76.5211 70.7758 76.5045C70.7322 76.5584 70.6886 76.6124 70.643 76.6643C70.5516 76.7722 70.4562 76.876 70.3565 76.9778C69.5947 77.7603 68.7125 78.2793 67.6145 78.4952C66.367 78.7401 65.0551 78.3955 64.0048 77.7707C63.5129 77.478 63.2741 77.2704 62.8569 76.8158C62.7531 76.7017 62.942 76.9404 62.8569 76.8179C62.8175 76.7619 62.778 76.7079 62.7428 76.6498C62.6888 76.5647 62.6452 76.4733 62.5975 76.3841C62.6971 76.575 62.6265 76.3924 62.585 76.3052C62.5207 76.1682 62.5933 76.3426 62.5912 76.3903C62.5954 76.3322 62.5871 76.2741 62.5912 76.2159C62.6244 75.67 62.1014 75.203 61.5783 75.203C61.0033 75.203 60.5985 75.6679 60.5653 76.2159L60.5612 76.218Z" fill="black"/>
<path d="M46.2075 86.7777C47.4197 88.7787 48.7938 90.7839 50.527 92.3719C51.677 93.4264 53.0158 94.3522 54.5394 94.7632C56.063 95.1742 57.6862 95.004 59.1392 94.3148C60.669 93.5904 61.8397 92.2474 63.0125 91.0683C63.2969 90.7839 63.5834 90.5016 63.8781 90.2276C64.0462 90.0719 64.2144 89.9204 64.3887 89.7709C64.478 89.6941 64.5652 89.6194 64.6565 89.5447C64.7769 89.445 65.2398 89.1461 64.6939 89.5052C65.1111 89.2312 65.4993 88.9219 65.9289 88.6645C66.1552 88.5296 66.3856 88.4009 66.6201 88.2805C66.7405 88.2182 66.863 88.1581 66.9855 88.0999C67.0685 88.0605 67.1536 88.0231 67.2366 87.9837C67.4401 87.8944 67.4068 87.909 67.1391 88.0252C67.3425 87.8799 67.6954 87.8197 67.9341 87.747C68.1728 87.6744 68.4323 87.61 68.6855 87.5581C68.8017 87.5353 68.9719 87.5353 69.0799 87.4896L68.7748 87.5312C68.8599 87.5208 68.9429 87.5125 69.028 87.5062C69.3124 87.4834 69.6009 87.4751 69.8853 87.4813C70.1219 87.4876 70.3585 87.5021 70.5952 87.5249C70.7114 87.5374 70.8276 87.5561 70.9439 87.5644C70.2713 87.5083 70.6865 87.5312 70.8422 87.5561C71.3424 87.637 71.8385 87.7408 72.3367 87.8384C73.4617 88.0584 74.6055 88.2515 75.7533 88.2722C76.7746 88.2909 77.8062 88.1622 78.8047 87.9505C80.1726 87.6619 81.501 87.1305 82.7319 86.4767C87.0494 84.1871 90.2647 80.1227 92.8096 76.0603C93.397 75.1221 93.04 73.6919 92.0519 73.1688C91.0141 72.6208 89.7894 72.9259 89.1605 73.9264C88.4713 75.0287 87.7365 76.0977 86.956 77.1377C86.6468 77.5508 87.2425 76.7806 86.9249 77.1771C86.8336 77.2892 86.7464 77.4034 86.6551 77.5155C86.4786 77.7334 86.3001 77.9493 86.1174 78.1631C85.7749 78.5658 85.42 78.9581 85.0568 79.3401C84.407 80.0189 83.7221 80.6644 82.9955 81.2602C82.8731 81.3619 82.3292 81.7584 82.9229 81.3266C82.7568 81.447 82.5949 81.5736 82.4289 81.692C82.1134 81.9162 81.7916 82.132 81.4616 82.3355C80.8679 82.7008 80.2514 83.0122 79.6183 83.3028C79.2987 83.4502 80.1539 83.089 79.828 83.2135C79.7553 83.2426 79.6827 83.2716 79.61 83.3007C79.4793 83.3505 79.3485 83.4003 79.2157 83.446C78.9292 83.5456 78.6407 83.637 78.348 83.7159C78.1072 83.7802 77.8644 83.8383 77.6194 83.8902C77.4928 83.9172 77.3641 83.94 77.2354 83.9629C77.1731 83.9733 77.1109 83.9836 77.0486 83.994C76.6584 84.0604 77.5136 83.9525 77.032 83.994C76.5172 84.0376 76.0045 84.0625 75.4876 84.0397C75.2282 84.0293 74.9687 84.0085 74.7113 83.9816C74.6491 83.9753 74.2256 83.9193 74.6179 83.9733C75.0102 84.0272 74.483 83.9504 74.4103 83.938C73.4783 83.7864 72.5609 83.5643 71.6247 83.4315C70.3253 83.2447 69.1318 83.2197 67.8303 83.4356C65.4972 83.8238 63.3633 85.1336 61.5803 86.6323C60.3016 87.7055 59.2451 89.0133 57.9664 90.0844C57.9519 90.0968 57.7568 90.2587 57.7547 90.2567C57.7485 90.2484 58.2155 89.9162 57.9685 90.0885C57.8253 90.1882 57.6841 90.2899 57.5347 90.3833C57.3852 90.4767 57.2358 90.5514 57.0843 90.6324C56.9037 90.7279 56.6733 90.7237 57.2773 90.5577C57.1963 90.5805 57.1175 90.6179 57.0365 90.6448C56.8725 90.6988 56.7044 90.7424 56.5342 90.7756C56.3349 90.8151 56.0858 90.7694 56.7438 90.7528C56.6525 90.7549 56.5612 90.7694 56.4698 90.7735C56.2768 90.7819 56.0879 90.7735 55.8969 90.759C55.4091 90.7258 56.5342 90.8815 56.0443 90.7777C55.9343 90.7549 55.8264 90.7341 55.7184 90.705C55.5835 90.6698 55.4507 90.6303 55.3199 90.5847C55.2597 90.5639 55.2016 90.5411 55.1435 90.5203C54.7408 90.375 55.6333 90.7486 55.3469 90.6075C55.0604 90.4663 54.7864 90.3293 54.5187 90.1612C54.3568 90.0595 54.2032 89.9515 54.0475 89.8436C53.9146 89.7523 53.6552 89.5198 54.1969 89.9661C54.1263 89.9079 54.0558 89.854 53.9852 89.7959C53.2255 89.171 52.5509 88.4487 51.9302 87.6889C51.8472 87.5872 51.7683 87.4855 51.6853 87.3838C51.5483 87.2073 51.5753 87.2447 51.7683 87.4917C51.7123 87.4191 51.6562 87.3443 51.6023 87.2696C51.4279 87.0371 51.2598 86.8005 51.0937 86.5618C50.6599 85.937 50.251 85.2955 49.8566 84.6458C49.2837 83.7013 47.9365 83.2633 46.9651 83.8881C46.0165 84.5005 45.5951 85.7667 46.2075 86.7797V86.7777Z" fill="black"/>
<path d="M54.8113 94.0802C55.5254 95.9567 56.1336 97.8747 56.6297 99.8197C56.9555 101.098 57.2337 102.387 57.462 103.687C57.599 104.463 57.6862 105.256 57.8709 106.024C58.6493 109.254 62.3068 110.159 65.2045 110.01C68.9553 109.819 72.7165 108.422 75.8073 106.315C79.6142 103.718 82.4206 100.004 83.6037 95.5187C84.5046 92.0999 84.515 88.488 83.8653 85.0256C83.6598 83.9379 82.2898 83.2196 81.2665 83.5497C80.104 83.9254 79.5706 84.982 79.7906 86.1486C79.8176 86.296 79.8446 86.4454 79.8695 86.5928C79.911 86.8357 80.0148 87.695 79.9027 86.7651C79.9733 87.3567 80.0355 87.9462 80.0667 88.542C80.1061 89.2934 80.1103 90.049 80.075 90.8025C80.0563 91.2052 80.0272 91.61 79.9837 92.0106C79.9712 92.1248 79.9567 92.2369 79.9463 92.351C79.9089 92.6977 79.9733 92.1538 79.9774 92.1352C79.9297 92.4071 79.8965 92.6832 79.8467 92.9551C79.6764 93.9016 79.4336 94.8358 79.1139 95.7429C79.0413 95.9505 78.9645 96.1539 78.8835 96.3594L78.8337 96.4819C78.7465 96.6915 78.7673 96.6458 78.8918 96.3469C78.8295 96.3885 78.759 96.6458 78.7258 96.7164C78.4933 97.2188 78.2359 97.7066 77.9515 98.1819C77.6941 98.6137 77.4139 99.033 77.115 99.4378L77.0714 99.4959C76.9344 99.6786 76.9531 99.6537 77.1316 99.4191C77.0942 99.5167 76.9531 99.6412 76.8867 99.7222C76.7331 99.9069 76.5732 100.09 76.4113 100.266C75.7886 100.949 75.1078 101.561 74.3958 102.147C74.0554 102.427 74.8006 101.848 74.4456 102.109C74.3501 102.18 74.2547 102.253 74.1592 102.323C73.9993 102.439 73.8374 102.554 73.6734 102.666C73.2832 102.931 72.8826 103.185 72.4737 103.423C72.1042 103.639 71.7264 103.845 71.3445 104.036C71.139 104.139 70.9293 104.239 70.7197 104.337C70.5495 104.416 69.8147 104.702 70.4914 104.447C69.6964 104.748 68.9117 105.051 68.0897 105.277C67.7182 105.379 67.3446 105.47 66.9668 105.549C66.8007 105.584 66.6326 105.615 66.4665 105.646C66.2631 105.682 65.4204 105.771 66.2423 105.69C65.5532 105.759 64.8724 105.819 64.177 105.792C64.0213 105.786 63.8677 105.777 63.712 105.763C63.629 105.756 63.5481 105.744 63.4671 105.738C63.1205 105.711 64.0026 105.821 63.7494 105.777C63.4609 105.727 63.1744 105.678 62.89 105.597C62.753 105.557 62.6161 105.516 62.4811 105.466C62.4687 105.462 62.286 105.397 62.2881 105.391C62.2922 105.37 62.8278 105.642 62.6078 105.522C62.3877 105.402 62.1656 105.269 61.9456 105.132C62.5891 105.532 62.2217 105.356 62.0515 105.186C61.985 105.119 61.9269 105.034 61.8584 104.974C62.3234 105.379 62.1407 105.348 61.9809 105.094C61.9622 105.065 61.9518 105.03 61.9331 105.001C61.7837 104.76 62.1573 105.63 62.0432 105.252C61.8294 104.546 61.7442 103.809 61.6239 103.085C61.4059 101.788 61.1444 100.501 60.833 99.224C60.3141 97.0963 59.6623 95.0018 58.8839 92.9551C58.6826 92.4278 58.4169 91.9878 57.9125 91.693C57.4599 91.4273 56.7916 91.3152 56.2851 91.4792C55.2804 91.8051 54.3879 92.9717 54.8092 94.0781L54.8113 94.0802Z" fill="black"/>
<path d="M68.3264 86.4288C68.0233 87.4314 67.7203 88.7806 67.6518 90.3956C67.575 92.1912 67.8158 93.6982 68.0732 94.7838" fill="currentColor"/>
<path d="M66.2881 85.8684C65.3665 88.9426 65.3022 92.2265 66.0349 95.3464C66.2881 96.4238 67.5772 97.1648 68.6337 96.8223C69.7567 96.4591 70.3794 95.3776 70.1095 94.2234C70.0473 93.9577 69.9912 93.692 69.9414 93.4263C69.9103 93.2561 69.8833 93.0859 69.8563 92.9157C69.7816 92.4694 69.8999 93.3578 69.8563 92.9302C69.7816 92.1725 69.7338 91.419 69.7546 90.6572C69.765 90.2628 69.7899 89.8705 69.8293 89.4782C69.8438 89.3246 69.8169 88.7662 69.8397 89.3349C69.8335 89.171 69.8957 88.98 69.9227 88.8181C70.0327 88.2016 70.1822 87.5934 70.3607 86.9935C70.6783 85.9348 69.9808 84.6437 68.8849 84.3946C67.7889 84.1455 66.6265 84.7371 66.286 85.8705L66.2881 85.8684Z" fill="black"/>
<path d="M37.3129 98.7072C36.7524 100.279 36.194 102.269 35.8785 104.615C35.5028 107.413 35.59 109.842 35.7934 111.704C37.2838 110.325 38.7742 108.947 40.2666 107.569C40.003 108.534 39.6999 110.114 39.9283 112.042C40.2147 114.46 41.1945 116.21 41.784 117.105" fill="currentColor"/>
<path d="M36.2957 98.4269C34.795 102.664 34.2553 107.235 34.7389 111.704C34.8365 112.602 35.8266 113.111 36.5428 112.451C38.0331 111.073 39.5235 109.694 41.0159 108.316C40.4264 107.973 39.839 107.631 39.2495 107.288C38.303 110.79 38.8862 114.599 40.8748 117.638C41.1862 118.116 41.8109 118.315 42.3195 118.018C42.7928 117.74 43.0128 117.053 42.6994 116.573C41.018 114.004 40.4866 110.811 41.2879 107.851C41.5702 106.807 40.2853 106.118 39.5214 106.824C38.031 108.202 36.5407 109.58 35.0482 110.958C35.6502 111.208 36.2501 111.457 36.852 111.706C36.3871 107.401 36.8873 103.073 38.3341 98.9915C38.5251 98.4539 38.1182 97.8353 37.5972 97.6921C37.0139 97.5323 36.4888 97.8893 36.2978 98.429L36.2957 98.4269Z" fill="black"/>
<path d="M97.7934 93.0153C98.194 93.5591 98.6009 94.103 99.0098 94.6489C100.45 96.5669 101.895 98.4372 103.342 100.262C101.322 100.058 99.3025 99.8529 97.2807 99.6495C97.974 100.117 99.3294 101.167 100.241 103.018C101.538 105.655 101.065 108.135 100.89 108.891" fill="currentColor"/>
<path d="M96.8821 93.5488C98.744 96.0667 100.65 98.5535 102.595 101.009C102.844 100.407 103.093 99.8073 103.342 99.2053C101.322 99.0019 99.3024 98.7964 97.2806 98.5929C96.8261 98.5473 96.3756 98.9541 96.2615 99.3693C96.1328 99.8405 96.3569 100.297 96.7472 100.563C96.8551 100.636 96.961 100.712 97.0689 100.789C97.152 100.849 97.1976 100.891 97.0897 100.804C97.1623 100.862 97.235 100.92 97.3056 100.98C97.5982 101.227 97.8764 101.495 98.1338 101.777C98.7669 102.473 99.29 103.317 99.6075 104.22C99.9251 105.119 100.07 106.014 100.06 106.96C100.058 107.164 100.048 107.365 100.033 107.567C100.027 107.645 99.9646 108.154 100.004 107.897C99.9666 108.137 99.923 108.374 99.8691 108.611C99.7425 109.167 100.039 109.754 100.606 109.91C101.139 110.055 101.777 109.732 101.905 109.173C102.331 107.313 102.26 105.304 101.588 103.508C100.855 101.547 99.539 99.909 97.81 98.7382C97.6314 99.3942 97.455 100.05 97.2765 100.706C99.2962 100.91 101.316 101.115 103.338 101.318C103.744 101.36 104.162 101.02 104.303 100.669C104.475 100.243 104.361 99.8633 104.085 99.5146C102.25 97.2021 100.457 94.8565 98.7025 92.4818C98.3642 92.023 97.7871 91.7926 97.2578 92.1019C96.8053 92.3656 96.5375 93.0859 96.878 93.5467L96.8821 93.5488Z" fill="black"/>
</svg>
