<svg width="105" height="36" viewBox="0 0 105 36" fill="currentColor" xmlns="http://www.w3.org/2000/svg">
<path d="M2.70952 36C1.89539 36 1.29752 35.8882 0.915895 35.6646C0.559714 35.4658 0.381623 35.1677 0.381623 34.7702V15.3168C0.381623 14.2236 0.343461 13.354 0.267136 12.7081C0.216253 12.0373 0.152649 11.5155 0.0763246 11.1429C0.0254415 10.7702 0 10.4472 0 10.1739C0 9.90062 0.178091 9.67702 0.534272 9.50311C0.915895 9.32919 1.36112 9.20497 1.86995 9.13043C2.40423 9.03106 2.90034 8.96894 3.35828 8.9441C3.84167 8.89441 4.18513 8.86957 4.38867 8.86957C4.84661 8.86957 5.15191 9.03106 5.30456 9.35404C5.45721 9.67702 5.6353 10.3478 5.83883 11.3665C6.19501 10.5714 6.71657 9.90062 7.40349 9.35404C8.09041 8.80745 8.89182 8.53416 9.80771 8.53416C11.6141 8.53416 13.0642 9.40373 14.1582 11.1429C15.2522 12.8571 15.7992 15.354 15.7992 18.6335C15.7992 21.8385 15.2522 24.3106 14.1582 26.0497C13.0642 27.764 11.6522 28.6211 9.9222 28.6211C9.18439 28.6211 8.44659 28.4472 7.70879 28.0994C6.99642 27.7516 6.46215 27.3168 6.10597 26.795V34.7702C6.10597 35.1677 5.91516 35.4658 5.53353 35.6646C5.17735 35.8882 4.5922 36 3.77807 36H2.70952ZM8.05225 24.1118C8.71373 24.1118 9.19712 23.7019 9.50241 22.882C9.83315 22.0621 9.99853 20.6335 9.99853 18.5963C9.99853 16.3602 9.82043 14.8571 9.46425 14.087C9.10807 13.2919 8.56108 12.8944 7.82327 12.8944C7.46709 12.8944 7.13635 12.9565 6.83105 13.0807C6.5512 13.1801 6.3095 13.3043 6.10597 13.4534V22.8447C6.36038 23.1925 6.64024 23.4907 6.94554 23.7391C7.27628 23.9876 7.64518 24.1118 8.05225 24.1118Z" fill="currentColor"/>
<path d="M28.2643 28.6211C25.2622 28.6211 23.0742 27.7764 21.7003 26.087C20.3265 24.3727 19.6396 21.913 19.6396 18.7081C19.6396 16.1242 19.9703 14.0994 20.6318 12.6335C21.3187 11.1429 22.2601 10.087 23.4558 9.46584C24.6516 8.84472 26.0254 8.53416 27.5773 8.53416C30.1469 8.53416 31.966 9.41615 33.0345 11.1801C34.1285 12.9441 34.6755 15.3913 34.6755 18.5217C34.6755 19.2671 34.5356 19.8261 34.2557 20.1988C34.0013 20.5714 33.5561 20.7578 32.9201 20.7578H25.4402C25.4402 22.0497 25.7328 22.9565 26.318 23.4783C26.9286 24 27.6664 24.2609 28.5314 24.2609C29.2946 24.2609 29.9688 24.1739 30.554 24C31.1391 23.8261 31.6353 23.6522 32.0423 23.4783C32.4748 23.3043 32.8056 23.2174 33.0345 23.2174C33.289 23.2174 33.4925 23.3913 33.6451 23.7391C33.8232 24.087 33.9504 24.4845 34.0268 24.9317C34.1285 25.3789 34.1794 25.7391 34.1794 26.0124C34.1794 26.4099 33.9632 26.7702 33.5307 27.0932C33.0981 27.4161 32.5512 27.7019 31.8897 27.9503C31.2536 28.1739 30.6049 28.3354 29.9434 28.4348C29.2819 28.559 28.7222 28.6211 28.2643 28.6211ZM25.3639 17.441H29.5236C29.5236 15.677 29.371 14.4224 29.0657 13.677C28.7858 12.9068 28.277 12.5217 27.5392 12.5217C26.9286 12.5217 26.407 12.8571 25.9745 13.528C25.5674 14.1988 25.3639 15.5031 25.3639 17.441Z" fill="currentColor"/>
<path d="M44.1818 28.6211C40.8744 28.6211 39.2207 26.8075 39.2207 23.1801V13.1925H38.3811C37.6179 13.1925 37.2363 12.5714 37.2363 11.3292V10.6957C37.2363 9.45342 37.6179 8.8323 38.3811 8.8323H39.2207L39.8313 5.29193C39.984 4.49689 40.6327 4.09938 41.7776 4.09938H43.0369C44.309 4.09938 44.9451 4.49689 44.9451 5.29193V8.8323H46.586C47.3493 8.8323 47.7309 9.45342 47.7309 10.6957V11.3292C47.7309 12.5714 47.3493 13.1925 46.586 13.1925H44.9451V22.6584C44.9451 23.205 45.0087 23.6149 45.1359 23.8882C45.2885 24.1366 45.5684 24.2609 45.9754 24.2609C46.2553 24.2609 46.4716 24.236 46.6242 24.1863C46.7769 24.1366 46.9422 24.1118 47.1203 24.1118C47.3493 24.1118 47.5401 24.2857 47.6927 24.6335C47.8454 24.9814 47.9599 25.3665 48.0362 25.7888C48.1125 26.2112 48.1507 26.5342 48.1507 26.7578C48.1507 27.1304 47.9472 27.4658 47.5401 27.764C47.1585 28.0373 46.6624 28.2484 46.0518 28.3975C45.4666 28.5466 44.8433 28.6211 44.1818 28.6211Z" fill="currentColor"/>
<path d="M54.0691 28.3975C53.255 28.3975 52.6571 28.2981 52.2755 28.0994C51.9193 27.8758 51.7412 27.5652 51.7412 27.1677V13.1925H50.9017C50.1384 13.1925 49.7568 12.5714 49.7568 11.3292V10.6957C49.7568 9.45342 50.1384 8.8323 50.9017 8.8323H51.7412V5.44099C51.7412 3.7764 52.1737 2.45963 53.0387 1.49068C53.9292 0.496895 55.1504 0 56.7023 0C57.3638 0 57.9871 0.0621117 58.5723 0.186335C59.1829 0.310559 59.679 0.484472 60.0606 0.708074C60.4677 0.931677 60.6712 1.19255 60.6712 1.49068C60.6712 1.71429 60.633 2.07453 60.5567 2.57143C60.4804 3.04348 60.3659 3.49068 60.2133 3.91304C60.0606 4.31056 59.8698 4.50932 59.6408 4.50932C59.4627 4.50932 59.2974 4.48447 59.1447 4.43478C58.9921 4.38509 58.7758 4.36025 58.496 4.36025C58.0889 4.36025 57.809 4.48447 57.6564 4.73292C57.5292 4.98137 57.4656 5.3913 57.4656 5.96273V8.8323H59.1066C59.8698 8.8323 60.2514 9.45342 60.2514 10.6957V11.3292C60.2514 12.5714 59.8698 13.1925 59.1066 13.1925H57.4656V27.1677C57.4656 27.5652 57.2748 27.8758 56.8931 28.0994C56.537 28.2981 55.9518 28.3975 55.1377 28.3975H54.0691ZM66.8535 28.6211C63.5461 28.6211 61.8924 26.8075 61.8924 23.1801V1.45342C61.8924 1.0559 62.0705 0.757764 62.4267 0.559006C62.8083 0.335405 63.4062 0.223604 64.2203 0.223604H65.2888C66.103 0.223604 66.6881 0.335405 67.0443 0.559006C67.4259 0.757764 67.6167 1.0559 67.6167 1.45342V22.6584C67.6167 23.205 67.6804 23.6149 67.8076 23.8882C67.9602 24.1366 68.2401 24.2609 68.6471 24.2609C68.927 24.2609 69.1432 24.236 69.2959 24.1863C69.4485 24.1366 69.6139 24.1118 69.792 24.1118C70.021 24.1118 70.2118 24.2857 70.3644 24.6335C70.5171 24.9814 70.6316 25.3665 70.7079 25.7888C70.7842 26.2112 70.8224 26.5342 70.8224 26.7578C70.8224 27.1304 70.6188 27.4658 70.2118 27.764C69.8302 28.0373 69.3341 28.2484 68.7235 28.3975C68.1383 28.5466 67.515 28.6211 66.8535 28.6211Z" fill="currentColor"/>
<path d="M81.441 28.6211C78.4389 28.6211 76.251 27.7764 74.8771 26.087C73.5033 24.3727 72.8164 21.913 72.8164 18.7081C72.8164 16.1242 73.1471 14.0994 73.8086 12.6335C74.4955 11.1429 75.4368 10.087 76.6326 9.46584C77.8283 8.84472 79.2022 8.53416 80.7541 8.53416C83.3237 8.53416 85.1428 9.41615 86.2113 11.1801C87.3053 12.9441 87.8523 15.3913 87.8523 18.5217C87.8523 19.2671 87.7124 19.8261 87.4325 20.1988C87.1781 20.5714 86.7329 20.7578 86.0968 20.7578H78.617C78.617 22.0497 78.9096 22.9565 79.4948 23.4783C80.1054 24 80.8432 24.2609 81.7082 24.2609C82.4714 24.2609 83.1456 24.1739 83.7308 24C84.3159 23.8261 84.812 23.6522 85.2191 23.4783C85.6516 23.3043 85.9824 23.2174 86.2113 23.2174C86.4657 23.2174 86.6693 23.3913 86.8219 23.7391C87 24.087 87.1272 24.4845 87.2036 24.9317C87.3053 25.3789 87.3562 25.7391 87.3562 26.0124C87.3562 26.4099 87.1399 26.7702 86.7074 27.0932C86.2749 27.4161 85.7279 27.7019 85.0665 27.9503C84.4304 28.1739 83.7817 28.3354 83.1202 28.4348C82.4587 28.559 81.899 28.6211 81.441 28.6211ZM78.5407 17.441H82.7004C82.7004 15.677 82.5478 14.4224 82.2425 13.677C81.9626 12.9068 81.4538 12.5217 80.716 12.5217C80.1054 12.5217 79.5838 12.8571 79.1513 13.528C78.7442 14.1988 78.5407 15.5031 78.5407 17.441Z" fill="currentColor"/>
<path d="M91.9103 28.323C91.4269 28.323 91.0962 28.2733 90.9181 28.1739C90.74 28.0497 90.651 27.8758 90.651 27.6522C90.651 27.5031 90.6764 27.3292 90.7273 27.1304C90.8036 26.9068 90.8927 26.6957 90.9944 26.4969L94.5435 18.4472L91.4142 10.4348C91.2616 10.0124 91.1852 9.70187 91.1852 9.50311C91.1852 9.15528 91.3506 8.9441 91.6814 8.86957C92.0375 8.79503 92.5972 8.75776 93.3605 8.75776H94.3909C94.8997 8.75776 95.3577 8.79503 95.7647 8.86957C96.1972 8.9441 96.4644 9.19255 96.5661 9.61491L97.8636 14.795L99.1993 9.65217C99.3265 9.20497 99.5937 8.9441 100.001 8.86957C100.408 8.79503 100.866 8.75776 101.375 8.75776H102.367C103.181 8.75776 103.741 8.81988 104.046 8.9441C104.351 9.06832 104.504 9.2795 104.504 9.57764C104.504 9.80124 104.428 10.087 104.275 10.4348L101.031 18.4472L104.618 26.4596C104.873 27.0311 105 27.441 105 27.6894C105 27.9379 104.898 28.1118 104.695 28.2112C104.517 28.2857 104.186 28.323 103.702 28.323H101.718C101.184 28.323 100.726 28.2981 100.344 28.2484C99.9626 28.1739 99.6827 27.8758 99.5046 27.354L97.7873 22.0994L96.0319 27.354C95.8538 27.8758 95.5739 28.1739 95.1923 28.2484C94.8361 28.2981 94.3909 28.323 93.8566 28.323H91.9103Z" fill="currentColor"/>
</svg>
