<svg width="91" height="32" viewBox="0 0 91 32" fill="none" xmlns="http://www.w3.org/2000/svg">
<path d="M3.28729 31.9644C2.58947 31.9644 2.077 31.8681 1.7499 31.6755C1.4446 31.5044 1.29195 31.2477 1.29195 30.9053V14.1538C1.29195 13.2125 1.25924 12.4637 1.19382 11.9074C1.1502 11.3298 1.09569 10.8805 1.03026 10.5596C0.986651 10.2387 0.964844 9.96056 0.964844 9.72523C0.964844 9.48989 1.11749 9.29734 1.42279 9.14759C1.7499 8.99783 2.13152 8.89086 2.56766 8.82667C3.02561 8.7411 3.45085 8.68761 3.84337 8.66622C4.25771 8.62343 4.5521 8.60204 4.72656 8.60204C5.11908 8.60204 5.38077 8.7411 5.51161 9.01922C5.64245 9.29734 5.7951 9.87498 5.96956 10.7521C6.27486 10.0675 6.7219 9.48989 7.31069 9.01922C7.89948 8.54855 8.5864 8.31322 9.37145 8.31322C10.9198 8.31322 12.1628 9.06201 13.1005 10.5596C14.0382 12.0358 14.507 14.1859 14.507 17.0099C14.507 19.7697 14.0382 21.8984 13.1005 23.396C12.1628 24.8722 10.9525 25.6103 9.46959 25.6103C8.83718 25.6103 8.20478 25.4606 7.57237 25.161C6.96178 24.8615 6.50383 24.4871 6.19853 24.0379V30.9053C6.19853 31.2477 6.03498 31.5044 5.70787 31.6755C5.40257 31.8681 4.90101 31.9644 4.20319 31.9644H3.28729ZM7.86677 21.7273C8.43375 21.7273 8.84809 21.3743 9.10977 20.6683C9.39326 19.9623 9.53501 18.7321 9.53501 16.9778C9.53501 15.0523 9.38236 13.758 9.07706 13.0948C8.77176 12.4102 8.30291 12.0679 7.67051 12.0679C7.36521 12.0679 7.08172 12.1214 6.82003 12.2283C6.58015 12.3139 6.37299 12.4209 6.19853 12.5492V20.6362C6.4166 20.9357 6.65648 21.1924 6.91816 21.4064C7.20165 21.6203 7.51786 21.7273 7.86677 21.7273Z" fill="#FAFAF9"/>
<path d="M25.1913 25.6103C22.6181 25.6103 20.7427 24.8829 19.5651 23.4281C18.3876 21.9519 17.7988 19.8339 17.7988 17.0741C17.7988 14.8491 18.0823 13.1055 18.6492 11.8432C19.238 10.5596 20.0449 9.65034 21.0698 9.11549C22.0947 8.58064 23.2723 8.31322 24.6026 8.31322C26.8051 8.31322 28.3643 9.07271 29.2802 10.5917C30.2179 12.1107 30.6867 14.218 30.6867 16.9136C30.6867 17.5555 30.5668 18.0368 30.3269 18.3577C30.1088 18.6786 29.7272 18.8391 29.182 18.8391H22.7708C22.7708 19.9516 23.0215 20.7325 23.5231 21.1817C24.0465 21.631 24.6789 21.8557 25.4203 21.8557C26.0745 21.8557 26.6524 21.7808 27.154 21.631C27.6555 21.4813 28.0808 21.3315 28.4297 21.1817C28.8004 21.032 29.0839 20.9571 29.2802 20.9571C29.4982 20.9571 29.6727 21.1069 29.8035 21.4064C29.9562 21.7059 30.0652 22.0482 30.1306 22.4333C30.2179 22.8184 30.2615 23.1286 30.2615 23.3639C30.2615 23.7062 30.0761 24.0165 29.7054 24.2946C29.3347 24.5727 28.8658 24.8187 28.2988 25.0327C27.7537 25.2252 27.1976 25.3643 26.6306 25.4499C26.0636 25.5568 25.5839 25.6103 25.1913 25.6103ZM22.7053 15.983H26.2708C26.2708 14.464 26.14 13.3836 25.8783 12.7418C25.6384 12.0786 25.2022 11.747 24.5698 11.747C24.0465 11.747 23.5994 12.0358 23.2287 12.6134C22.8798 13.1911 22.7053 14.3143 22.7053 15.983Z" fill="#FAFAF9"/>
<path d="M38.835 25.6103C36.0001 25.6103 34.5826 24.0485 34.5826 20.925V12.3246H33.863C33.2088 12.3246 32.8816 11.7898 32.8816 10.72V10.1745C32.8816 9.1048 33.2088 8.56995 33.863 8.56995H34.5826L35.106 5.52129C35.2368 4.83668 35.7929 4.49438 36.7742 4.49438H37.8537C38.944 4.49438 39.4892 4.83668 39.4892 5.52129V8.56995H40.8957C41.5499 8.56995 41.8771 9.1048 41.8771 10.1745V10.72C41.8771 11.7898 41.5499 12.3246 40.8957 12.3246H39.4892V20.4757C39.4892 20.9464 39.5437 21.2994 39.6527 21.5347C39.7836 21.7487 40.0235 21.8557 40.3724 21.8557C40.6122 21.8557 40.7976 21.8343 40.9284 21.7915C41.0593 21.7487 41.201 21.7273 41.3537 21.7273C41.5499 21.7273 41.7135 21.8771 41.8443 22.1766C41.9752 22.4761 42.0733 22.8077 42.1387 23.1714C42.2042 23.5351 42.2369 23.8132 42.2369 24.0058C42.2369 24.3267 42.0624 24.6155 41.7135 24.8722C41.3864 25.1076 40.9612 25.2894 40.4378 25.4178C39.9362 25.5461 39.402 25.6103 38.835 25.6103Z" fill="#FAFAF9"/>
<path d="M47.3098 25.4178C46.612 25.4178 46.0995 25.3322 45.7724 25.161C45.4671 24.9685 45.3145 24.7011 45.3145 24.3588V12.3246H44.5948C43.9406 12.3246 43.6135 11.7898 43.6135 10.72V10.1745C43.6135 9.1048 43.9406 8.56995 44.5948 8.56995H45.3145V5.64966C45.3145 4.21625 45.6852 3.08237 46.4266 2.248C47.1899 1.39224 48.2366 0.964355 49.5668 0.964355C50.1338 0.964355 50.6681 1.01784 51.1697 1.12481C51.693 1.23178 52.1183 1.38154 52.4454 1.57409C52.7943 1.76663 52.9687 1.99127 52.9687 2.248C52.9687 2.44055 52.936 2.75076 52.8706 3.17864C52.8052 3.58513 52.7071 3.97022 52.5762 4.33392C52.4454 4.67623 52.2818 4.84738 52.0855 4.84738C51.9329 4.84738 51.7912 4.82598 51.6603 4.7832C51.5295 4.74041 51.3441 4.71901 51.1042 4.71901C50.7553 4.71901 50.5154 4.82599 50.3846 5.03993C50.2756 5.25387 50.2211 5.60687 50.2211 6.09893V8.56995H51.6276C52.2818 8.56995 52.6089 9.1048 52.6089 10.1745V10.72C52.6089 11.7898 52.2818 12.3246 51.6276 12.3246H50.2211V24.3588C50.2211 24.7011 50.0575 24.9685 49.7304 25.161C49.4251 25.3322 48.9235 25.4178 48.2257 25.4178H47.3098ZM58.2678 25.6103C55.4329 25.6103 54.0155 24.0485 54.0155 20.925V2.21591C54.0155 1.8736 54.1681 1.61687 54.4734 1.44572C54.8005 1.25318 55.313 1.1569 56.0108 1.1569H56.9267C57.6245 1.1569 58.1261 1.25318 58.4314 1.44572C58.7585 1.61687 58.9221 1.8736 58.9221 2.21591V20.4757C58.9221 20.9464 58.9766 21.2994 59.0856 21.5347C59.2164 21.7487 59.4563 21.8557 59.8052 21.8557C60.0451 21.8557 60.2305 21.8343 60.3613 21.7915C60.4922 21.7487 60.6339 21.7273 60.7866 21.7273C60.9828 21.7273 61.1464 21.8771 61.2772 22.1766C61.4081 22.4761 61.5062 22.8077 61.5716 23.1714C61.637 23.5351 61.6697 23.8132 61.6697 24.0058C61.6697 24.3267 61.4953 24.6155 61.1464 24.8722C60.8193 25.1076 60.394 25.2894 59.8707 25.4178C59.3691 25.5461 58.8348 25.6103 58.2678 25.6103Z" fill="#FAFAF9"/>
<path d="M70.7714 25.6103C68.1982 25.6103 66.3228 24.8829 65.1452 23.4281C63.9677 21.9519 63.3789 19.8339 63.3789 17.0741C63.3789 14.8491 63.6624 13.1055 64.2293 11.8432C64.8181 10.5596 65.625 9.65034 66.6499 9.11549C67.6749 8.58064 68.8524 8.31322 70.1827 8.31322C72.3852 8.31322 73.9444 9.07271 74.8603 10.5917C75.798 12.1107 76.2668 14.218 76.2668 16.9136C76.2668 17.5555 76.1469 18.0368 75.907 18.3577C75.6889 18.6786 75.3073 18.8391 74.7621 18.8391H68.3509C68.3509 19.9516 68.6016 20.7325 69.1032 21.1817C69.6266 21.631 70.259 21.8557 71.0004 21.8557C71.6546 21.8557 72.2325 21.7808 72.7341 21.631C73.2356 21.4813 73.6609 21.3315 74.0098 21.1817C74.3805 21.032 74.664 20.9571 74.8603 20.9571C75.0783 20.9571 75.2528 21.1069 75.3836 21.4064C75.5363 21.7059 75.6453 22.0482 75.7107 22.4333C75.798 22.8184 75.8416 23.1286 75.8416 23.3639C75.8416 23.7062 75.6562 24.0165 75.2855 24.2946C74.9148 24.5727 74.4459 24.8187 73.8789 25.0327C73.3338 25.2252 72.7777 25.3643 72.2107 25.4499C71.6437 25.5568 71.164 25.6103 70.7714 25.6103ZM68.2854 15.983H71.8509C71.8509 14.464 71.7201 13.3836 71.4584 12.7418C71.2185 12.0786 70.7823 11.747 70.1499 11.747C69.6266 11.747 69.1795 12.0358 68.8088 12.6134C68.4599 13.1911 68.2854 14.3143 68.2854 15.983Z" fill="#FAFAF9"/>
<path d="M79.7451 25.3536C79.3308 25.3536 79.0473 25.3108 78.8947 25.2252C78.742 25.1183 78.6657 24.9685 78.6657 24.7759C78.6657 24.6476 78.6875 24.4978 78.7311 24.3267C78.7965 24.1341 78.8728 23.9523 78.9601 23.7811L82.0022 16.8494L79.3199 9.94986C79.189 9.58616 79.1236 9.31874 79.1236 9.14759C79.1236 8.84807 79.2654 8.66622 79.5489 8.60204C79.8542 8.53785 80.3339 8.50576 80.9881 8.50576H81.8713C82.3074 8.50576 82.7 8.53785 83.0489 8.60204C83.4196 8.66622 83.6486 8.88016 83.7358 9.24386L84.848 13.7045L85.9928 9.27595C86.1019 8.89086 86.3308 8.66622 86.6798 8.60204C87.0287 8.53785 87.4212 8.50576 87.8573 8.50576H88.7078C89.4056 8.50576 89.8854 8.55925 90.1471 8.66622C90.4088 8.77319 90.5396 8.95504 90.5396 9.21177C90.5396 9.40431 90.4742 9.65035 90.3433 9.94986L87.5629 16.8494L90.6377 23.749C90.8558 24.2411 90.9648 24.5941 90.9648 24.808C90.9648 25.022 90.8776 25.1717 90.7032 25.2573C90.5505 25.3215 90.267 25.3536 89.8527 25.3536H88.1517C87.6938 25.3536 87.3013 25.3322 86.9742 25.2894C86.647 25.2252 86.4072 24.9685 86.2545 24.5192L84.7825 19.9944L83.2779 24.5192C83.1252 24.9685 82.8853 25.2252 82.5582 25.2894C82.2529 25.3322 81.8713 25.3536 81.4134 25.3536H79.7451Z" fill="#FAFAF9"/>
</svg>
