<svg width="33" height="34" viewBox="0 0 33 34" fill="none" xmlns="http://www.w3.org/2000/svg">
<path d="M16.6625 33.25C14.3875 33.25 12.2547 32.8167 10.2641 31.95C8.27344 31.0833 6.5401 29.912 5.06406 28.4359C3.58802 26.9599 2.41667 25.2266 1.55 23.2359C0.683333 21.2453 0.25 19.1125 0.25 16.8375C0.25 12.8833 1.50937 9.39635 4.02813 6.37656C6.54688 3.35677 9.75625 1.48125 13.6562 0.75C13.1687 3.43125 13.3177 6.05156 14.1031 8.61094C14.8885 11.1703 16.2427 13.4115 18.1656 15.3344C20.0885 17.2573 22.3297 18.6115 24.8891 19.3969C27.4484 20.1823 30.0688 20.3312 32.75 19.8438C32.0458 23.7437 30.1771 26.9531 27.1438 29.4719C24.1104 31.9906 20.6167 33.25 16.6625 33.25ZM16.6625 30C19.0458 30 21.2531 29.4042 23.2844 28.2125C25.3156 27.0208 26.9135 25.3823 28.0781 23.2969C25.749 23.0802 23.5417 22.4911 21.4563 21.5297C19.3708 20.5682 17.5021 19.2615 15.85 17.6094C14.1979 15.9573 12.8844 14.0885 11.9094 12.0031C10.9344 9.91771 10.3521 7.71042 10.1625 5.38125C8.07708 6.54583 6.44531 8.15052 5.26719 10.1953C4.08906 12.2401 3.5 14.4542 3.5 16.8375C3.5 20.4938 4.77969 23.6016 7.33906 26.1609C9.89844 28.7203 13.0063 30 16.6625 30Z" fill="#5B21B6"/>
</svg>
