<svg width="39" height="39" viewBox="0 0 39 39" fill="none" xmlns="http://www.w3.org/2000/svg">
<mask id="mask0_118_590" style="mask-type:alpha" maskUnits="userSpaceOnUse" x="0" y="0" width="39" height="39">
<rect width="39" height="39" fill="#D9D9D9"/>
</mask>
<g mask="url(#mask0_118_590)">
<path d="M19.6625 35.75C17.3875 35.75 15.2547 35.3167 13.2641 34.45C11.2734 33.5833 9.5401 32.412 8.06406 30.9359C6.58802 29.4599 5.41667 27.7266 4.55 25.7359C3.68333 23.7453 3.25 21.6125 3.25 19.3375C3.25 15.3833 4.50937 11.8964 7.02813 8.87656C9.54688 5.85677 12.7562 3.98125 16.6562 3.25C16.1687 5.93125 16.3177 8.55156 17.1031 11.1109C17.8885 13.6703 19.2427 15.9115 21.1656 17.8344C23.0885 19.7573 25.3297 21.1115 27.8891 21.8969C30.4484 22.6823 33.0688 22.8312 35.75 22.3438C35.0458 26.2437 33.1771 29.4531 30.1438 31.9719C27.1104 34.4906 23.6167 35.75 19.6625 35.75ZM19.6625 32.5C22.0458 32.5 24.2531 31.9042 26.2844 30.7125C28.3156 29.5208 29.9135 27.8823 31.0781 25.7969C28.749 25.5802 26.5417 24.9911 24.4563 24.0297C22.3708 23.0682 20.5021 21.7615 18.85 20.1094C17.1979 18.4573 15.8844 16.5885 14.9094 14.5031C13.9344 12.4177 13.3521 10.2104 13.1625 7.88125C11.0771 9.04583 9.44531 10.6505 8.26719 12.6953C7.08906 14.7401 6.5 16.9542 6.5 19.3375C6.5 22.9938 7.77969 26.1016 10.3391 28.6609C12.8984 31.2203 16.0063 32.5 19.6625 32.5Z" fill="#1e40af"/>
</g>
</svg>
